<?xml version="1.0" encoding="UTF-8"?><svg xmlns="http://www.w3.org/2000/svg" xmlns:xlink="http://www.w3.org/1999/xlink" height="1205.9" preserveAspectRatio="xMidYMid meet" version="1.0" viewBox="1343.4 1396.2 1306.2 1205.9" width="1306.2" zoomAndPan="magnify"><g><g id="change1_1"><path d="M2011.4,2320.7c0.8,24.4,1,49,0.2,74c-1,29.9-3.3,59.9-7.9,89.7c12.1,9.1,29.9,13.1,48.3,12.8 c21.1-0.3,41.7-6.2,54.7-16.2l1-0.8c9.8-28.9,18.5-60.4,25.7-93.4c5.3-24.2,9.6-49,12.9-73.8L2011.4,2320.7L2011.4,2320.7z M1958.8,2393c1-31.8,0.3-63.7-1.2-95.3l0-0.5c-0.8-14.6,10.4-27,24.9-27.8l192.2-11c1.3,0,2.6,0,3.9,0.1 c14.5,1.4,25.2,14.3,23.8,28.8c-3.7,38.1-9.6,75.3-17.3,110.7c-7.9,36.5-17.9,71.9-29.3,104.7c-1.1,3.8-3.2,7.3-6,10.4 c-3.2,3.4-6.9,6.7-10.8,9.7c-22,16.9-54.5,26.7-86.4,27.2c-32.8,0.5-66-8.8-88.6-30.1c-3-2.8-5.8-5.9-8.5-9.1 c-5.1-5.8-7.6-13.8-6.2-22C1955,2456.4,1957.8,2424.5,1958.8,2393L1958.8,2393z" fill="#5E2719"/></g><g id="change2_1"><path clip-rule="evenodd" d="M1984,2295.8c3,64.7,3.1,131-8.5,197.5 c33.4,43.5,122.1,36.7,155.1,1.7c21.8-62.6,38.3-135.6,45.6-210.2L1984,2295.8L1984,2295.8z" fill="#E3842B" fill-rule="evenodd"/></g><g id="change1_2"><path d="M2460,1611.7c6.9,0,14.3,0.4,22.3,1.1c58.3,5.2,100.4,30.7,128,68.1l1.2,1.8c25.9,36.1,38,82.6,38,132.2 h0.1c0,8.7-0.5,18.4-1.4,28.9c-5.5,61.3-37.7,128.7-82.5,179c-43,48.4-98.3,82-154.4,82c-3.1,0-7.1-0.2-11.7-0.6 c-53.1-4.8-95.2-40.8-123.6-90c-26.6-46.3-41.3-104.8-41.3-158.7c0-7.8,0.4-16.4,1.2-25.6c5.6-62.6,28.3-119.4,69.1-159.5 C2342.2,1634,2393.7,1611.7,2460,1611.7L2460,1611.7z M2477.7,1665.3c-4.9-0.4-10.8-0.7-17.7-0.7c-51.3,0-90.4,16.5-117.9,43.5 c-31.5,30.9-49.1,75.9-53.6,126.4c-0.5,6-0.8,13.1-0.8,21c0,45.5,12.1,94.3,34.1,132.4c20.2,35.2,48.5,60.7,82.4,63.7 c1.5,0.1,3.9,0.2,7.2,0.2c39.8,0,81.2-26.4,114.9-64.2c37.8-42.6,65-98.5,69.5-148.4c0.7-7.4,1-15.5,1-24.3h0.1 c0-39-8.8-74.6-27.9-101.3l-1.2-1.5C2548.7,1686.5,2519.2,1669.1,2477.7,1665.3L2477.7,1665.3z" fill="#5E2719"/></g><g id="change3_1"><path clip-rule="evenodd" d="M2460,1638.2c124.5,0,171.5,96.2,161.9,203.4 c-9.6,107.2-111,236.9-210.6,236.9c-99.6,0-158.7-139-149.1-246.2C2271.8,1725.1,2335.5,1638.2,2460,1638.2L2460,1638.2z" fill="#FCAF3A" fill-rule="evenodd"/></g><g id="change4_1"><path clip-rule="evenodd" d="M2460,1638.2c98.6,0,148.6,60.4,160.4,138.8 c-28.7-78-83.5-120.2-159.5-122.4c-78.4-2.3-155.3,42.6-191.3,133.2C2291.2,1702,2353.3,1638.2,2460,1638.2L2460,1638.2z" fill="#FFEAB2" fill-rule="evenodd"/></g><g id="change2_2"><path clip-rule="evenodd" d="M2605,1853c-14.8,92.2-92.2,209.9-193.2,209.9 c-99.1,0-158.6-121.9-149.7-228.9c7,68.8,88.1,126.7,151.9,105.3c39.2-13.1,97.4-57.4,67.1-147.5c23.2,41.9,65.7,61.5,101.6,46.2 C2605.8,1828.1,2611.2,1814.2,2605,1853L2605,1853z" fill="#E3842B" fill-rule="evenodd"/></g><g id="change1_3"><path d="M2467,1793.1c-2.8-6.7,0.4-14.5,7.2-17.2c6.7-2.8,14.5,0.4,17.2,7.2c25.5,61.9,14.4,108.8-14.1,138.8 c-19.6,20.7-47.3,33-76.9,36.4c-29.2,3.4-60.4-1.8-87.4-16.1c-45.2-23.9-78.8-72.5-71.9-147.8c0.7-7.3,7.1-12.6,14.3-11.9 c7.3,0.7,12.6,7.1,11.9,14.3c-5.7,62.7,21.3,102.8,57.9,122.1c22.2,11.7,47.9,16,72.1,13.2c23.7-2.7,45.6-12.3,60.8-28.3 C2479.9,1880.7,2487.8,1843.7,2467,1793.1L2467,1793.1z" fill="#5E2719"/></g><g id="change4_2"><path clip-rule="evenodd" d="M2422.5,1653.3c24.2-2.9,44.1,4.6,44.4,16.8 c0.3,12.2-19.1,24.5-43.3,27.4c-24.2,2.9-44.1-4.6-44.4-16.8C2378.9,1668.5,2398.3,1656.2,2422.5,1653.3L2422.5,1653.3z" fill="#FFEAB2" fill-rule="evenodd"/></g><g id="change4_3"><path clip-rule="evenodd" d="M2368.5,1710.6c13.5-1.6,24.6,2.6,24.8,9.4 c0.2,6.8-10.6,13.7-24.2,15.3c-13.5,1.6-24.6-2.6-24.8-9.4C2344.2,1719.1,2355,1712.3,2368.5,1710.6L2368.5,1710.6z" fill="#FFEAB2" fill-rule="evenodd"/></g><g id="change1_4"><path d="M1512.6,2084.3c-15.8,65.9-16.4,140.8-6.7,215.2c10.9,83.5,34.8,166.1,64.7,235.2l0.9,0.6 c13.9,9,35.1,13.1,56.3,11.7c18.4-1.2,36-6.7,47.3-16.8c-7.1-29.7-11.9-59.3-15.3-88.7c-3.8-33.1-5.7-66.6-6.9-100 c-0.5-14.6,11-26.8,25.6-27.2c2.3-0.1,4.6,0.2,6.8,0.7l0-0.1c16.2,3.8,29.5,6.8,43.4,8.7c13.9,1.9,29.8,2.9,52,2.9 c22.1,0,38-1,52-2.9c13.9-1.9,27.2-4.9,43.4-8.7c14.2-3.3,28.5,5.5,31.8,19.8c0.7,3,0.9,5.9,0.6,8.8c-1.2,32.8-3.1,65.7-6.8,98.1 c-3.4,29.3-8.2,58.9-15.3,88.7c11.2,10.1,28.7,15.5,47,16.8c21.1,1.4,42.2-2.7,56.1-11.7l0.9-0.6c12.4-28.6,23.7-59.2,33.4-91 c10.1-33.1,18.6-67.7,24.9-102.8c2.4-13.3,14.4-22.5,27.6-21.7l0,0c21,1.4,48.8,2,77.1,0.4c21.6-1.2,43.4-3.7,62.6-8 c33.4-7.6,48.4,9.1,54.3,33.8c3.5,14.8,2,31.4,0.5,43.7c-2.8,23.7-5.7,46.1-8.9,67.9c-3.2,21.8-6.7,42.8-10.8,63.7 c1.5,1,4.7,2.1,9.1,3.2c9.5,2.4,21.6,3.2,34.3,2.7c24.2-1,48.1-5.8,58.2-12c24.2-61.4,45.2-123.4,59.4-186.6 c14.5-64.6,22-130.5,18.6-198.1c-5.1-102.3-34.3-177.2-85.9-225.3c-52.4-49-129.4-71.7-228.9-68.9c-13,0.4-24.1-8.8-26.6-21.1 c-3.8-18.4-8.8-36.5-15.1-54.2c-6.2-17.3-13.4-33.6-21.6-48.7c-2.7-4.9-3.6-10.3-3.1-15.4l0,0c4.9-44.1,4.5-101.5-1.5-147.2 c-3.9-30-8.7-53-13.5-58.4c-3.7,0.5-13.9,6.4-27.2,15.1c-24.1,15.7-51.9,40.1-75,64.1c-6.1,7.3-15.9,11-25.5,9l-0.4-0.1 c-1.9-0.4-3.7-1-5.5-1.8c-17.6-7.2-36.6-13.1-56.8-17.6c-20.1-4.5-41.7-7.8-64.7-9.5c-22.9-1.7-44.7-1.8-65.5-0.4 c-21,1.5-40.8,4.5-59.4,9l-1,0.3c-11.2,2.5-22.5-2.5-28.2-11.9c-19.4-27.4-43.3-55.9-64.7-75.1c-11.8-10.5-20.9-17.8-24.5-19 c-5.6,4.5-13.7,26.6-22.2,55.8c-12.8,44.3-21.9,100.9-23.8,145.1c-0.2,5.6-2.2,10.8-5.4,15c-23.1,30.4-41.4,65.5-54.8,104.2 c-13.8,39.9-22.6,83.9-26.1,130.9c-2.3,29.9,5.2,56.9,20,80.7c17,27.3,43.7,50.9,76.8,70.7 C1510.9,2061,1515.5,2073.2,1512.6,2084.3L1512.6,2084.3z M1453.5,2306.3c-9.7-73.8-9.8-148.4,3.7-216.4 c-32.8-21.9-59.8-47.9-78.4-77.8c-20.7-33.2-31.1-70.8-27.9-112.5c3.9-51.1,13.6-99.5,29-144.1c14.4-41.4,33.6-79.2,57.7-112.4 c2.7-46.6,12.3-103.9,25.4-149.4c13.7-47.2,33.5-84.2,57.8-92.1l2.4-0.6c21.2-4.8,46.9,8.5,72.4,31.3c21.2,18.9,43.9,45,63.3,71 c16.5-3.2,33.6-5.5,51.1-6.7c23.3-1.7,47.7-1.6,73.1,0.4c25.3,1.9,49.4,5.6,72.4,10.8c17.3,3.9,33.8,8.7,49.6,14.4 c23.2-22.8,49.6-45.2,73.3-60.7c28.6-18.6,56-28,76.2-20l2.3,1c22.9,11.6,36.8,51.1,43.2,99.8c6.2,47,6.9,105.1,2.6,151.6 c8.2,15.8,15.3,32.1,21.2,48.7c4.6,12.9,8.6,26.2,12.1,40.1c103.6,0.7,185.7,28.2,244.6,83.2c61.9,57.8,96.8,144.8,102.7,261.6 c3.6,72.6-4.3,143.2-19.9,212.2c-15.3,67.8-37.9,134.1-64,199.6c-1.2,3.7-3.3,7.1-6.2,10c-15.8,16.1-58.1,28.5-96.9,30.2 c-17.3,0.7-34.7-0.5-49.4-4.3c-18.8-4.8-34.1-14-42.5-28.6c-6-10.3-8.2-22.1-5.5-35.6c4-20.3,7.4-40.6,10.4-61.5 c3.1-21,5.9-42.9,8.7-66.4c0.7-5.7,1.4-12.5,1.4-18.2c-20.3,4-42.1,6.4-63.4,7.6c-21.2,1.2-41.9,1.2-60.2,0.7 c-6.1,29.3-13.5,58.2-22,86c-11.2,36.7-24,71.3-37.9,102.7c-1.5,3.4-3.7,6.6-6.6,9.2c-3.5,3.2-7.4,6.1-11.7,8.9 c-23.2,15-56.4,22.1-88.1,20c-32.7-2.2-65.2-14.2-86-37.3c-3.1-3.4-6-7.2-8.6-11.3l0,0c-3.8-6-5.3-13.5-3.3-20.9 c8.1-31.2,13.5-62.9,17.2-94.7c2.4-20.9,4-41.5,5.2-61.8c-4.7,0.8-9.4,1.6-14.4,2.3c-16.9,2.3-35.1,3.5-59,3.5 c-23.9,0-42.1-1.2-59-3.5c-5-0.7-9.8-1.4-14.4-2.3c1.2,20.4,2.8,41,5.2,61.8c3.6,31.8,9,63.6,17.2,94.7l-0.1,0 c1.8,6.9,0.8,14.4-3.4,20.9c-2.8,4.4-5.7,8.1-8.5,11.3c-20.8,23.2-53.4,35.1-86.3,37.3c-31.9,2.1-65.2-5-88.4-20 c-4-2.6-7.7-5.4-11.1-8.3c-3-2.5-5.4-5.7-7.1-9.5C1491.9,2487.7,1465.5,2397.6,1453.5,2306.3L1453.5,2306.3z M2250.5,2520.2 c-0.2-0.3-0.3-0.5-0.1-0.2L2250.5,2520.2L2250.5,2520.2z" fill="#5E2719"/></g><g id="change3_2"><path clip-rule="evenodd" d="M1487,2077.5c-35.9,148.6,1.9,338.3,62,473.7 c35.8,32.2,125.2,31.7,155-14.4c-17.1-65.4-22.4-131.5-24.7-196.2c33.2,7.8,55.3,12.3,101.3,12.3c46.1,0,68.1-4.5,101.3-12.3 c-2.3,64.7-7.6,130.8-24.7,196.2c29.7,46.1,118.7,46.6,154.5,14.4c26.9-60.6,49.3-132,62.7-205.7l0,0c38.7,2.5,99.5,2.5,147.2-8.2 c28.2-6.4,25.3,27.9,22.8,48.7c-5.6,47.2-11.3,88.6-19.4,129.9c-10.6,54.1,124.5,40.3,149.6,14.7c51.6-129.3,89.5-261.8,82.5-402.1 c-11-221-130.4-325.4-341.9-319.4c-8.1-39.7-21.2-76.8-39.4-110.2c9.3-84.9,0-217.6-30.6-233c-24.9-9.8-88.3,39.9-133.3,86.9l0.1,0 c-38.2-15.7-81.7-25.9-130.7-29.6c-48.9-3.7-93.5-0.2-133.6,9.5l0.1,0c-37.4-53.2-92.5-112-118.6-106 c-32.5,10.6-61.9,140.4-65.5,225.7c-50,65.7-78.9,152.1-86.3,249.1C1371.7,1976.3,1416.7,2035.6,1487,2077.5L1487,2077.5z" fill="#FCAF3A" fill-rule="evenodd"/></g><g id="change4_4"><path clip-rule="evenodd" d="M2457.6,2185.1c0.6-18.7,0.5-37.5-0.5-56.5 c-10.6-211.5-120.3-316.2-315.3-319.5C2331.6,1827.4,2442,1946.2,2457.6,2185.1L2457.6,2185.1z" fill="#FFEAB2" fill-rule="evenodd"/></g><g id="change2_3"><path clip-rule="evenodd" d="M2217.2,2338.2c1.5-0.3,3-0.6,4.4-1c32.2-7.3,23.9,39.4,21.2,61.6 c-5.1,42-10.5,79.5-17.8,117.1c-5.3,27.2,26.2,37.2,62,37.2c-22.7-24.1-29.3-90.5-9.3-148.7c13.5-39.2,66.1-33.2,97-12.4 c19,12.8,20,20.6,31.9-11.8c15.9-43.5,27.8-99.2,29.6-150.3c0.8-22.1-9-20.2-20.9-8.7c-63.1,60.7-169.8,27.8-183.4-61.9 c-2.5-16.5-10.7-24.8-25.9,5.3c-20.2,39.9-35.6,111.3,7.1,163.3C2214.9,2329.8,2216.2,2333.6,2217.2,2338.2L2217.2,2338.2z" fill="#E3842B" fill-rule="evenodd"/></g><g id="change2_4"><path clip-rule="evenodd" d="M1641,2572.1c26.1-3.9,50.2-15.3,63.1-35.3 c-17.1-65.4-22.4-131.5-24.7-196.2c33.2,7.8,55.3,12.3,101.3,12.3c46.1,0,68.1-4.5,101.3-12.3c-2.3,64.7-7.6,130.8-24.7,196.2 c11.2,17.3,30.7,28.2,52.7,33.3c-29-43,4.8-149.1,25.2-221.1c12.5-44.1,20-78-18.3-64.2c-67.6,24.3-207.5,24.3-275.1,0 c-38.4-13.8-30.8,20.1-18.3,64.2C1644,2422.1,1671.7,2530.4,1641,2572.1L1641,2572.1z" fill="#E3842B" fill-rule="evenodd"/></g><g id="change5_1"><path clip-rule="evenodd" d="M2230.2,2488.5c-1.7,9.2-3.4,18.3-5.2,27.4 c-10.6,54.1,124.5,40.3,149.6,14.7c4.3-10.7,8.5-21.5,12.6-32.3c-26.2-18.2-60.6-28-97.6-25.5 C2268.1,2474.3,2247.9,2479.9,2230.2,2488.5L2230.2,2488.5z" fill="#FFF3E3" fill-rule="evenodd"/></g><g id="change6_1"><path clip-rule="evenodd" d="M2230.2,2488.5c-1.5,8.4-3.1,16.8-4.8,25.2l-0.1,0.3l0,0.1 l-0.1,0.4l-0.1,0.4l-0.1,0.4l-0.1,0.4c-0.2,0.8-0.3,1.7-0.4,2.5l0,0c-0.1,0.8-0.1,1.6-0.2,2.3l0,0.1v0c0,0.7,0,1.5,0,2.2v0.1l0,0v0 c0,0.7,0.1,1.4,0.2,2.1l0,0.1l0,0c0.1,0.7,0.2,1.3,0.4,2l0,0.1l0,0.1c0.2,0.6,0.3,1.3,0.6,1.9l0,0.1l0,0.1c0.2,0.6,0.5,1.2,0.7,1.8 l0,0.1c0.3,0.6,0.6,1.2,0.9,1.8l0,0.1c0.3,0.5,0.7,1.1,1,1.6l0.1,0.2c0.3,0.5,0.7,0.9,1.1,1.4l0.2,0.3c0.4,0.5,0.8,0.9,1.2,1.3 l0.2,0.2c0.4,0.4,0.9,0.9,1.4,1.3l0.2,0.1c0.5,0.4,1,0.9,1.6,1.3l0.1,0.1l0.1,0.1c0.5,0.4,1,0.8,1.6,1.1l0.2,0.1 c0.6,0.4,1.2,0.7,1.8,1.1l0.2,0.1l0.2,0.1c0.6,0.3,1.2,0.6,1.8,1l0.2,0.1l0.2,0.1c0.6,0.3,1.2,0.6,1.8,0.9l0.3,0.2 c0.6,0.3,1.3,0.6,2,0.8l0.4,0.2c0.6,0.3,1.3,0.5,2,0.7l0.5,0.2c0.7,0.2,1.3,0.4,2,0.7l0.6,0.2l2,0.6l0.6,0.2l2.1,0.5l0.6,0.2l2,0.4 l0.9,0.2l2.1,0.4l0.7,0.1l0.2,0l1.5,0.2l0.5,0.1l0.9,0.1l2.3,0.3l0.7,0.1l2.4,0.3l0.7,0.1l2.4,0.2l0.8,0.1l2.4,0.2l1,0.1l2.3,0.1 l0.9,0l0.2,0l1.7,0.1l0.4,0l1.2,0h0l1.7,0h0.3l1.4,0c-13.5-14.3-21.3-43.4-21.2-76.9C2253.2,2479,2241.2,2483.2,2230.2,2488.5 L2230.2,2488.5z" fill="#E6C6A6" fill-rule="evenodd"/></g><g id="change5_2"><path clip-rule="evenodd" d="M1866.1,2498.2c-2.5,12.9-5.4,25.8-8.8,38.6 c29.7,46.1,118.7,46.6,154.5,14.4c5.3-11.9,10.4-24.2,15.3-36.9c-24.7-19.1-57.7-30.7-93.8-30.7 C1908.9,2483.6,1886,2488.9,1866.1,2498.2L1866.1,2498.2z" fill="#FFF3E3" fill-rule="evenodd"/></g><g id="change6_2"><path clip-rule="evenodd" d="M1866.1,2498.2l-0.1,0.6l-0.1,0.6l-0.1,0.6l0,0l-0.1,0.6l-0.1,0.6 l-0.1,0.6l-0.1,0.6l-0.1,0.6v0l-0.1,0.6l-0.1,0.6l-0.1,0.6l-0.1,0.6l-0.1,0.6l0,0.1l-0.1,0.5l-0.1,0.6l-0.1,0.6l-0.1,0.6l-0.1,0.6 l0,0.1l-0.1,0.5l-0.1,0.6l-0.1,0.6l-0.1,0.6l-0.1,0.6l0,0.2l-0.1,0.4l-0.1,0.6l-0.1,0.6l-0.1,0.6l-0.1,0.6l0,0.2l-0.1,0.4l-0.1,0.6 l-0.1,0.6l-0.1,0.6l-0.1,0.6l-0.1,0.3l-0.1,0.3l-0.1,0.6l-0.1,0.6l-0.1,0.6l-0.1,0.6l-0.1,0.3l-0.1,0.3l-0.1,0.6l-0.1,0.6l-0.1,0.6 l-0.1,0.6l-0.1,0.4l-0.1,0.2l-0.1,0.6l-0.1,0.6l-0.1,0.6l-0.1,0.6l-0.1,0.4l0,0.2l-0.1,0.6l-0.2,0.6l-0.1,0.6l-0.1,0.6l-0.1,0.5 l0,0.1l-0.2,0.6l-0.2,0.6l-0.2,0.6l-0.2,0.6l-0.1,0.5l0,0.1l-0.2,0.6l-0.2,0.6l-0.2,0.6l-0.2,0.6l-0.2,0.6c0.5,0.7,0.9,1.4,1.4,2.1 l0.1,0.1c0.5,0.7,1,1.3,1.5,2l0.1,0.1c0.5,0.6,1,1.3,1.5,1.9l0,0c0.5,0.6,1.1,1.2,1.6,1.9l0.1,0.1c2.3,2.5,4.7,4.8,7.3,7l0.2,0.2 c0.6,0.5,1.2,1,1.8,1.4l0.1,0.1l0,0l0,0c0.6,0.5,1.3,1,2,1.4l0.2,0.1l1.9,1.3l0.2,0.1l0.2,0.1c0.7,0.4,1.3,0.9,2,1.3l0.1,0 c0.7,0.4,1.4,0.9,2.2,1.3l0.1,0.1c0.7,0.4,1.4,0.8,2.1,1.1l0.2,0.1l0.2,0.1l2.2,1.1l0.1,0l2.2,1.1l0.1,0.1l0.4,0.2 c1.5,0.7,3,1.3,4.6,2l0.1,0c0.8,0.3,1.6,0.6,2.4,0.9l0.2,0.1l2.3,0.8l0.2,0.1l0.1,0l2.4,0.8l0.2,0.1l0.1,0l0,0l2.4,0.7l0.3,0.1 c1.7,0.5,3.4,0.9,5.2,1.3l0.1,0l0.1,0c-12.5-18.6-13.3-49-8.5-83.4C1888.9,2489.2,1877,2493.1,1866.1,2498.2L1866.1,2498.2z" fill="#E6C6A6" fill-rule="evenodd"/></g><g id="change5_3"><path clip-rule="evenodd" d="M1536.7,2521.9c4,10,8.1,19.8,12.3,29.3 c35.8,32.2,125.2,31.7,155-14.4c-2.7-10.3-5.1-20.5-7.2-30.8c-19.8-9.2-42.6-14.4-66.8-14.4 C1594.1,2491.6,1561.4,2503.1,1536.7,2521.9L1536.7,2521.9z" fill="#FFF3E3" fill-rule="evenodd"/></g><g id="change6_3"><path clip-rule="evenodd" d="M1641,2572.1l1.2-0.2h0c1.6-0.3,3.2-0.5,4.8-0.9l0.1,0l1.2-0.2 l1.2-0.3l1.2-0.3l1.2-0.3l1.2-0.3l0.1,0l1.7-0.4l1.4-0.4l1.2-0.3l0.3-0.1l1.2-0.3l1.2-0.4l1.1-0.4l0.3-0.1l0.8-0.3l1.1-0.4l1.1-0.4 l0.8-0.3l0.3-0.1l1.1-0.4l1.1-0.4l1.5-0.6l1.1-0.5l1.3-0.6l1.1-0.5l1.7-0.8l0.6-0.3l1.7-0.9l0.6-0.3l1.7-0.9l0.4-0.2l0,0l0.3-0.1 l1.8-1.1l0.6-0.3l1.7-1l0.4-0.3l1.7-1.1l0.3-0.2l0.1-0.1l0.1-0.1l1.6-1.2l0.6-0.4l1.6-1.3l0.3-0.2c0.6-0.5,1.2-1,1.7-1.5l0.1-0.1 l0.1-0.1c0.6-0.5,1.1-1,1.7-1.5l0.1-0.1l0.1-0.1c0.6-0.6,1.2-1.1,1.7-1.7l0.1-0.1c0.6-0.6,1.1-1.2,1.7-1.8l0.1-0.1 c0.5-0.6,1.1-1.2,1.6-1.8l0.1-0.1c0.5-0.6,1.1-1.3,1.6-1.9l0.1-0.1c0.5-0.6,1-1.3,1.4-1.9l0.1-0.1c0.5-0.7,0.9-1.4,1.4-2.1 l-0.1-0.5l-0.1-0.5l-0.1-0.5l-0.1-0.5l-0.1-0.5l-0.1-0.5l0-0.2l-0.1-0.3l-0.1-0.5l-0.1-0.5l-0.1-0.5l-0.1-0.5l-0.1-0.5l-0.1-0.4 l0-0.1l-0.1-0.5l-0.1-0.5l-0.1-0.5l-0.1-0.5l-0.1-0.5l-0.1-0.5l0-0.1l-0.1-0.4l-0.1-0.5l-0.1-0.5l-0.1-0.5l-0.1-0.5l-0.1-0.5 l-0.1-0.2l-0.1-0.2l-0.1-0.5l-0.1-0.5l-0.3-1.4l-0.1-0.4l0-0.1l-0.2-1l-0.1-0.5l-0.2-1l-0.1-0.5l0-0.1l-0.1-0.4l-0.1-0.5l-0.1-0.5 l-0.1-0.5l-0.1-0.5l-0.1-0.5l-0.1-0.3l0-0.2l-0.1-0.5l-0.1-0.5l-0.1-0.5l-0.1-0.5l-0.1-0.5l-0.1-0.5l0,0l-0.1-0.5l-0.1-0.5 l-0.1-0.5l-0.1-0.5l-0.1-0.5l-0.1-0.5l0-0.2l-0.1-0.3l-0.1-0.5l-0.1-0.5l-0.1-0.5l-0.2-1l-0.1-0.4l0-0.1 c-13.2-6.1-27.7-10.5-43.1-12.7C1656.4,2526.2,1653.7,2554.8,1641,2572.1L1641,2572.1z" fill="#E6C6A6" fill-rule="evenodd"/></g><g id="change2_5"><path clip-rule="evenodd" d="M1493.4,2106.5c-5.6,28.3-11.8,76.1-1.4,132.8 c9.8,53.9,15.4,20.5,25.4-9.2c18.3-54.2,57.7-77.5,98.5-92.9C1573.7,2136.8,1534.3,2130,1493.4,2106.5L1493.4,2106.5z" fill="#E3842B" fill-rule="evenodd"/></g><g id="change5_4"><path clip-rule="evenodd" d="M1679.3,2340.6c33.2,7.8,55.3,12.3,101.3,12.3 c46.1,0,68.1-4.5,101.3-12.3c36.1-71.1,60.6-159.1,66.2-267.3c-115.9,2.1-231.8,4.3-347.6,6.4 C1608.4,2179.2,1638.3,2263.7,1679.3,2340.6L1679.3,2340.6z" fill="#FFF3E3" fill-rule="evenodd"/></g><g id="change6_4"><path clip-rule="evenodd" d="M1679.3,2340.6c33.2,7.8,55.3,12.3,101.3,12.3 c46.1,0,68.1-4.5,101.3-12.3c8.3-16.4,16-33.8,23.1-52c-66.6,19.2-184.1,19.3-251,0.2C1661.8,2306.5,1670.3,2323.8,1679.3,2340.6 L1679.3,2340.6z" fill="#E6C6A6" fill-rule="evenodd"/></g><g id="change1_5"><path clip-rule="evenodd" d="M1628.1,1706.9c31.3,3.2,53.6,35.3,49.9,71.6 c-3.7,36.3-32.1,63.2-63.4,59.9c-31.3-3.2-53.6-35.3-49.9-71.6C1568.4,1730.5,1596.8,1703.7,1628.1,1706.9L1628.1,1706.9z" fill="#5E2719" fill-rule="evenodd"/></g><g id="change5_5"><path clip-rule="evenodd" d="M1624.3,1616.2c-30.7,7.2-34.5,34.4-3.3,38.6 c18.6,2.5,33.1,7.8,52.3,19c22.5,13.1,35.1-5.4,31.2-24.2C1697.6,1615.8,1645.3,1611.2,1624.3,1616.2L1624.3,1616.2z" fill="#FFF3E3" fill-rule="evenodd"/></g><g id="change7_1"><path clip-rule="evenodd" d="M1639.4,1731.5c12.8,1.3,21.9,14.4,20.4,29.3 c-1.5,14.8-13.1,25.8-25.9,24.5c-12.8-1.3-21.9-14.4-20.4-29.3C1615,1741.1,1626.6,1730.2,1639.4,1731.5L1639.4,1731.5z" fill="#FFF" fill-rule="evenodd"/></g><g id="change1_6"><path clip-rule="evenodd" d="M1905.6,1735.4c-31.3-3.2-59.7,23.6-63.4,59.9 c-3.7,36.3,18.6,68.4,49.9,71.6c31.3,3.2,59.7-23.6,63.4-59.9C1959.2,1770.6,1936.8,1738.6,1905.6,1735.4L1905.6,1735.4z" fill="#5E2719" fill-rule="evenodd"/></g><g id="change5_6"><path clip-rule="evenodd" d="M1927.7,1647.3c28.5,13.3,26.8,40.7-4.6,38.4 c-18.7-1.4-34,0.9-55.1,8c-24.7,8.3-33.2-12.4-25.6-30C1856,1632.1,1908.1,1638.2,1927.7,1647.3L1927.7,1647.3z" fill="#FFF3E3" fill-rule="evenodd"/></g><g id="change7_2"><path clip-rule="evenodd" d="M1889.5,1757.2c-12.8-1.3-24.4,9.7-25.9,24.5 c-1.5,14.8,7.6,27.9,20.4,29.3c12.8,1.3,24.4-9.7,25.9-24.5C1911.4,1771.6,1902.3,1758.5,1889.5,1757.2L1889.5,1757.2z" fill="#FFF" fill-rule="evenodd"/></g><g id="change2_6"><path clip-rule="evenodd" d="M1454.7,1711.4c-111.3,236.7-48.1,366.5,175.6,398.4 c45.9,6.5,37.4-5.1,0.9-17.9c-167.4-58.5-207.9-192.3-161.7-369.7C1482.3,1673.4,1478.1,1661.5,1454.7,1711.4L1454.7,1711.4z" fill="#E3842B" fill-rule="evenodd"/></g><g id="change5_7"><path clip-rule="evenodd" d="M1379,1883.5c-0.6,6-1.2,12-1.7,18.1 c-22.2,291.3,723.9,348,746.1,56.8c0.5-6.1,0.8-12.1,1.1-18.1c-60.1-33.1-125.6-23.3-194,9.3c-40.5-48-82.7-80.7-175-87.2 c-92.2-7.5-138.8,18.4-186.2,59.7C1506.7,1879.4,1443.4,1859.8,1379,1883.5L1379,1883.5z" fill="#FFF3E3" fill-rule="evenodd"/></g><g id="change6_5"><path clip-rule="evenodd" d="M1452.8,1874.2c-16.6-1.7-33.3-1-50,2.4 c-8.3,74.4,14.1,127.7,62.7,167.3c38.3,31.3,92.3,55.4,164.9,65.8c45.9,6.5,37.4-5.1,0.9-17.9 C1515.9,2051.6,1460.8,1975.6,1452.8,1874.2L1452.8,1874.2z" fill="#E6C6A6" fill-rule="evenodd"/></g><g id="change1_7"><path d="M1642.7,1959.9c-0.5-6.4,4.3-12,10.7-12.5c6.4-0.5,12,4.3,12.5,10.7c0.6,8.3,6.3,14,14,16.9 c4.9,1.9,10.5,2.7,16.3,2.4c6-0.3,12.1-1.6,17.8-4.2c12.7-5.7,23.2-17.5,24.4-35.9l2-32c0.4-6.4,5.9-11.3,12.3-10.9 c6.4,0.4,11.3,5.9,10.9,12.3l-2,32c-1.8,28.4-18.1,46.7-38.1,55.6c-8.4,3.7-17.4,5.8-26.2,6.2c-9,0.4-17.8-0.9-25.6-3.9 C1655.8,1990.7,1644.1,1978.3,1642.7,1959.9L1642.7,1959.9z" fill="#5E2719"/></g><g id="change1_8"><path clip-rule="evenodd" d="M1693,1882c10,21,31,32.6,57.7,43.7c28.1-7,50.6-15.3,63.7-34.5 C1841.6,1851.2,1672.2,1838.3,1693,1882L1693,1882z" fill="#5E2719" fill-rule="evenodd"/></g><g id="change1_9"><path d="M1829.8,1970.5c1.5-6.2,7.7-10.1,13.9-8.7c6.2,1.5,10.1,7.7,8.7,13.9c-4.2,18-17.6,28.5-34.1,32.1 c-8.1,1.8-17,1.7-25.8,0c-8.6-1.7-17.3-5.1-25-10.1c-18.3-11.8-31.7-32.4-29.2-60.7l0,0l2.8-31.9c0.5-6.4,6.2-11.1,12.6-10.6 c6.4,0.5,11.1,6.2,10.6,12.6l-2.8,31.9l0,0c-1.6,18.4,6.9,31.6,18.7,39.2c5.2,3.4,11,5.6,16.9,6.8c5.8,1.1,11.5,1.2,16.5,0.1 C1821.4,1983.4,1827.9,1978.6,1829.8,1970.5L1829.8,1970.5z" fill="#5E2719"/></g><g id="change1_10"><path clip-rule="evenodd" d="M1599.3,1531.6c-20-25.4-43.8-46-56.6-42.6 c-14.6,5.2-27.9,53.4-33.6,96.4c-4.1,31.4-2.3,31.2,12.3,15.4c20.4-22.1,44.9-38.2,74.2-50.9 C1609.7,1543.9,1609,1543.8,1599.3,1531.6L1599.3,1531.6z" fill="#5E2719" fill-rule="evenodd"/></g><g id="change1_11"><path clip-rule="evenodd" d="M1960,1559c23.6-22.1,50.2-38.8,62.4-33.6 c13.6,7.4,19.6,57,18.6,100.4c-0.7,31.7-2.5,31.2-14.5,13.4c-16.9-24.9-38.6-44.6-65.6-61.5C1947.9,1569.6,1948.6,1569.6,1960,1559 L1960,1559z" fill="#5E2719" fill-rule="evenodd"/></g><g id="change1_12"><path d="M2137.9,1789.2c7.9,37.8,12.6,75,13.4,109.2c0.8,33.3-1.9,63.7-8.7,89.1c-10.7,39.9-34.8,78.8-72.2,105.8 c-91,73.3-239.2,57.6-134.2,33.9c50-11.3,90.3-34.7,118.8-55.3c32.1-23.2,52.9-57.1,62.1-91.2c6.2-23,8.7-50.9,7.9-81.7 c-0.8-32.4-5.3-68-12.9-104.4L2137.9,1789.2L2137.9,1789.2z" fill="#5E2719"/></g><g id="change1_13"><path d="M2180.5,2274.9c18.4,56.1,69.3,40.2,67.5,72.3l-3,34.3c-12.1,1.1-13-21.2-26.8-24.4 c-30.5-7.2-55.5-37.4-64.8-63c-32.2-89.4,12.6-175,56.9-204.9c11.4-7.7,19.2-10.8,32.4-13.8c16.8-3.9,36.9-5.5,37,4.3 c0.1,5.8-24.9,7.4-44.3,19.4C2177.6,2134.8,2161.6,2217.4,2180.5,2274.9L2180.5,2274.9z" fill="#5E2719"/></g><g id="change1_14"><path d="M2097.9,2368l-26.2-3.9c7.6-49.1,10-96.1,11.2-145.7c0.2-9,2.1-17,9.5-5.7 C2111.3,2241.8,2103.1,2334.1,2097.9,2368L2097.9,2368z" fill="#5E2719"/></g><g id="change1_15"><path clip-rule="evenodd" d="M1623.1,2129.4c-57.3-11.2-115.8-37.6-153.5-62.9 c-1.3,9.9-4.9,22.3-6.3,32.3c38.4,24.5,93.1,44.2,150.9,43.5C1646.3,2141.9,1651.5,2134.9,1623.1,2129.4L1623.1,2129.4z" fill="#5E2719" fill-rule="evenodd"/></g><g id="change6_6"><path clip-rule="evenodd" d="M1742.7,2023.3C1917.4,2104.3,1557.1,2074.5,1742.7,2023.3 L1742.7,2023.3z" fill="#E6C6A6" fill-rule="evenodd"/></g><g id="change6_7"><path clip-rule="evenodd" d="M1774.4,2171c-41.5,0-87.6-17-92.5-7 c-4.2,8.5,34.3,49.6,92.5,49.6c62,0,96.8-41.1,92.5-49.6C1861.9,2153.9,1815.8,2170.9,1774.4,2171L1774.4,2171z" fill="#E6C6A6" fill-rule="evenodd"/></g><g id="change4_5"><path clip-rule="evenodd" d="M2355.7,1899.5c-20.3-19.6-44.7-27.1-54.5-16.6 c-9.8,10.4-1.2,34.8,19.1,54.4c20.3,19.6,44.7,27.1,54.5,16.6C2384.6,1943.5,2376,1919.1,2355.7,1899.5L2355.7,1899.5z" fill="#FFEAB2" fill-rule="evenodd"/></g><g id="change4_6"><path clip-rule="evenodd" d="M2361.5,1987.6c-11.3-11-25-15.1-30.4-9.3 c-5.4,5.8-0.7,19.4,10.7,30.4c11.3,11,25,15.1,30.4,9.3C2377.6,2012.2,2372.8,1998.6,2361.5,1987.6L2361.5,1987.6z" fill="#FFEAB2" fill-rule="evenodd"/></g><g id="change4_7"><path clip-rule="evenodd" d="M1780.7,1523.2c-48.9-3.5-92.9-0.4-133,9.5 c91.9-10.4,180.6-1.3,265.5,30.3c69.6-69.1,112.5-96.5,127.8-87c22.5,14,31.3,130.6,22,228.3c35.7,59,53,124.6,62.1,202.9 c-0.9-77.8-16.4-148.5-49.3-208.2c8.9-84.9,0-218.5-30.6-233c-24.9-10.5-88.5,39.7-133.3,86.9l0.1,0 C1873.7,1537.3,1829.6,1526.7,1780.7,1523.2L1780.7,1523.2z" fill="#FFEAB2" fill-rule="evenodd"/></g></g></svg>