<?xml version="1.0" encoding="UTF-8"?><svg xmlns="http://www.w3.org/2000/svg" xmlns:xlink="http://www.w3.org/1999/xlink" height="242.8" preserveAspectRatio="xMidYMid meet" version="1.0" viewBox="-0.7 -0.1 437.1 242.8" width="437.1" zoomAndPan="magnify"><defs><clipPath id="a"><path d="M 231 160 L 436.390625 160 L 436.390625 242.53125 L 231 242.53125 Z M 231 160"/></clipPath><clipPath id="b"><path d="M 250 203 L 436.390625 203 L 436.390625 242.53125 L 250 242.53125 Z M 250 203"/></clipPath><clipPath id="c"><path d="M 231 155 L 436.390625 155 L 436.390625 238 L 231 238 Z M 231 155"/></clipPath></defs><g><g clip-path="url(#a)" id="change1_2"><path d="M 231.964844 162.578125 C 231.964844 162.578125 240.210938 160.441406 243.480469 160.441406 C 246.351562 160.441406 436.097656 203.269531 436.097656 203.269531 C 436.097656 203.269531 437.296875 209.207031 434.828125 209.707031 C 400.917969 216.589844 273.574219 242.269531 260.4375 242.527344 C 253.285156 242.667969 234.855469 231.523438 234.855469 231.523438 L 231.964844 162.578125" fill="#aeb3e0"/></g><g clip-path="url(#b)" id="change2_1"><path d="M 260.304688 242.53125 C 257.9375 242.53125 254.398438 241.355469 250.710938 239.773438 C 251.699219 239.011719 253.371094 237.605469 254.644531 235.953125 C 256.828125 236.703125 258.800781 237.175781 260.304688 237.175781 C 260.347656 237.175781 260.394531 237.175781 260.4375 237.175781 C 273.574219 236.917969 400.917969 211.238281 434.828125 204.355469 C 435.769531 204.164062 436.15625 203.726562 436.089844 203.269531 C 436.09375 203.269531 436.097656 203.269531 436.097656 203.269531 C 436.097656 203.269531 436.386719 204.707031 436.386719 206.230469 C 436.390625 207.800781 436.082031 209.453125 434.828125 209.707031 C 400.917969 216.589844 273.574219 242.269531 260.4375 242.527344 C 260.394531 242.53125 260.347656 242.53125 260.304688 242.53125" fill="#919ad3"/></g><g clip-path="url(#c)" id="change1_1"><path d="M 231.964844 157.226562 C 231.964844 157.226562 240.210938 155.089844 243.480469 155.089844 C 246.351562 155.089844 397.195312 193 434.390625 202.007812 C 436.339844 202.476562 436.796875 203.957031 434.828125 204.355469 C 400.917969 211.238281 273.574219 236.917969 260.4375 237.175781 C 253.285156 237.316406 234.855469 226.171875 234.855469 226.171875 L 231.964844 157.226562" fill="#aeb3e0"/></g><g id="change3_1"><path d="M 240.0625 185.425781 L 354.738281 215.359375 L 273.304688 230.261719 L 244.078125 221.113281 L 240.0625 185.425781" fill="#acacdf"/></g><g id="change4_1"><path d="M 272.226562 226.035156 L 280.117188 228.570312 L 273.429688 229.796875 L 265.640625 227.246094 L 272.226562 226.035156" fill="#333"/></g><g id="change4_2"><path d="M 262.359375 222.867188 L 270.253906 225.402344 L 263.691406 226.609375 L 255.902344 224.0625 L 262.359375 222.867188" fill="#333"/></g><g id="change4_3"><path d="M 252.496094 219.699219 L 260.386719 222.234375 L 253.953125 223.425781 L 246.164062 220.875 L 252.496094 219.699219" fill="#333"/></g><g id="change4_4"><path d="M 242.632812 216.53125 L 250.523438 219.066406 L 244.21875 220.238281 L 236.429688 217.691406 L 242.632812 216.53125" fill="#333"/></g><g id="change4_5"><path d="M 232.769531 213.363281 L 240.660156 215.898438 L 234.480469 217.054688 L 226.691406 214.507812 L 232.769531 213.363281" fill="#333"/></g><g id="change4_6"><path d="M 222.902344 210.195312 L 230.796875 212.730469 L 224.742188 213.867188 L 216.953125 211.320312 L 222.902344 210.195312" fill="#333"/></g><g id="change4_7"><path d="M 213.039062 207.027344 L 220.933594 209.5625 L 215.007812 210.683594 L 207.214844 208.136719 L 213.039062 207.027344" fill="#333"/></g><g id="change4_8"><path d="M 203.175781 203.859375 L 211.066406 206.394531 L 205.269531 207.5 L 197.480469 204.949219 L 203.175781 203.859375" fill="#333"/></g><g id="change4_9"><path d="M 193.3125 200.6875 L 201.203125 203.226562 L 195.53125 204.3125 L 187.742188 201.765625 L 193.3125 200.6875" fill="#333"/></g><g id="change4_10"><path d="M 183.449219 197.519531 L 191.339844 200.054688 L 185.792969 201.128906 L 178.003906 198.582031 L 183.449219 197.519531" fill="#333"/></g><g id="change4_11"><path d="M 173.585938 194.351562 L 181.476562 196.886719 L 176.054688 197.941406 L 168.265625 195.394531 L 173.585938 194.351562" fill="#333"/></g><g id="change4_12"><path d="M 163.71875 191.183594 L 171.609375 193.71875 L 166.316406 194.757812 L 158.527344 192.210938 L 163.71875 191.183594" fill="#333"/></g><g id="change4_13"><path d="M 153.855469 188.015625 L 161.746094 190.550781 L 156.582031 191.574219 L 148.792969 189.023438 L 153.855469 188.015625" fill="#333"/></g><g id="change4_14"><path d="M 143.992188 184.847656 L 151.882812 187.382812 L 146.84375 188.386719 L 139.054688 185.839844 L 143.992188 184.847656" fill="#333"/></g><g id="change4_15"><path d="M 286.402344 223.539062 L 294.28125 225.976562 L 282.953125 228.050781 L 275.242188 225.59375 L 286.402344 223.539062" fill="#333"/></g><g id="change4_16"><path d="M 276.558594 220.496094 L 284.433594 222.933594 L 273.316406 224.980469 L 265.605469 222.519531 L 276.558594 220.496094" fill="#333"/></g><g id="change4_17"><path d="M 266.710938 217.453125 L 274.585938 219.886719 L 263.675781 221.90625 L 255.964844 219.449219 L 266.710938 217.453125" fill="#333"/></g><g id="change4_18"><path d="M 256.863281 214.40625 L 264.738281 216.84375 L 254.039062 218.835938 L 246.328125 216.375 L 256.863281 214.40625" fill="#333"/></g><g id="change4_19"><path d="M 247.015625 211.363281 L 254.894531 213.800781 L 244.398438 215.761719 L 236.6875 213.304688 L 247.015625 211.363281" fill="#333"/></g><g id="change4_20"><path d="M 237.167969 208.320312 L 245.046875 210.753906 L 234.761719 212.691406 L 227.050781 210.234375 L 237.167969 208.320312" fill="#333"/></g><g id="change4_21"><path d="M 227.320312 205.273438 L 235.199219 207.710938 L 225.121094 209.617188 L 217.410156 207.160156 L 227.320312 205.273438" fill="#333"/></g><g id="change4_22"><path d="M 217.476562 202.230469 L 225.351562 204.664062 L 215.484375 206.546875 L 207.773438 204.089844 L 217.476562 202.230469" fill="#333"/></g><g id="change4_23"><path d="M 207.628906 199.1875 L 215.507812 201.621094 L 205.847656 203.476562 L 198.136719 201.015625 L 207.628906 199.1875" fill="#333"/></g><g id="change4_24"><path d="M 197.78125 196.144531 L 205.65625 198.578125 L 196.207031 200.402344 L 188.496094 197.945312 L 197.78125 196.144531" fill="#333"/></g><g id="change4_25"><path d="M 187.933594 193.097656 L 195.8125 195.53125 L 186.570312 197.328125 L 178.859375 194.871094 L 187.933594 193.097656" fill="#333"/></g><g id="change4_26"><path d="M 178.085938 190.054688 L 185.964844 192.488281 L 176.929688 194.257812 L 169.21875 191.800781 L 178.085938 190.054688" fill="#333"/></g><g id="change4_27"><path d="M 168.238281 187.011719 L 176.117188 189.445312 L 167.292969 191.1875 L 159.582031 188.726562 L 168.238281 187.011719" fill="#333"/></g><g id="change4_28"><path d="M 154.453125 182.746094 L 166.269531 186.398438 L 157.652344 188.113281 L 146.089844 184.429688 L 154.453125 182.746094" fill="#333"/></g><g id="change4_29"><path d="M 296.335938 219.765625 L 308.46875 223.378906 L 297.140625 225.453125 L 285.257812 221.808594 L 296.335938 219.765625" fill="#333"/></g><g id="change4_30"><path d="M 286.230469 216.757812 L 294.316406 219.164062 L 283.277344 221.199219 L 275.359375 218.769531 L 286.230469 216.757812" fill="#333"/></g><g id="change4_31"><path d="M 276.121094 213.746094 L 284.207031 216.15625 L 273.378906 218.164062 L 265.460938 215.734375 L 276.121094 213.746094" fill="#333"/></g><g id="change4_32"><path d="M 266.011719 210.738281 L 274.097656 213.144531 L 263.480469 215.125 L 255.558594 212.695312 L 266.011719 210.738281" fill="#333"/></g><g id="change4_33"><path d="M 255.902344 207.730469 L 263.992188 210.136719 L 253.578125 212.089844 L 245.660156 209.660156 L 255.902344 207.730469" fill="#333"/></g><g id="change4_34"><path d="M 245.796875 204.71875 L 253.882812 207.125 L 243.679688 209.050781 L 235.761719 206.621094 L 245.796875 204.71875" fill="#333"/></g><g id="change4_35"><path d="M 235.6875 201.710938 L 243.773438 204.117188 L 233.78125 206.015625 L 225.859375 203.585938 L 235.6875 201.710938" fill="#333"/></g><g id="change4_36"><path d="M 225.578125 198.699219 L 233.667969 201.109375 L 223.882812 202.976562 L 215.960938 200.546875 L 225.578125 198.699219" fill="#333"/></g><g id="change4_37"><path d="M 215.472656 195.691406 L 223.558594 198.097656 L 213.980469 199.941406 L 206.0625 197.511719 L 215.472656 195.691406" fill="#333"/></g><g id="change4_38"><path d="M 205.363281 192.683594 L 213.449219 195.089844 L 204.082031 196.902344 L 196.164062 194.472656 L 205.363281 192.683594" fill="#333"/></g><g id="change4_39"><path d="M 195.257812 189.671875 L 203.34375 192.078125 L 194.183594 193.863281 L 186.265625 191.433594 L 195.257812 189.671875" fill="#333"/></g><g id="change4_40"><path d="M 185.148438 186.664062 L 193.234375 189.070312 L 184.28125 190.828125 L 176.363281 188.398438 L 185.148438 186.664062" fill="#333"/></g><g id="change4_41"><path d="M 175.039062 183.652344 L 183.125 186.0625 L 174.382812 187.789062 L 166.464844 185.359375 L 175.039062 183.652344" fill="#333"/></g><g id="change4_42"><path d="M 164.933594 180.644531 L 173.019531 183.050781 L 164.484375 184.753906 L 156.566406 182.324219 L 164.933594 180.644531" fill="#333"/></g><g id="change4_43"><path d="M 306.0625 216.019531 L 322.652344 220.78125 L 311.324219 222.855469 L 295.066406 218.050781 L 306.0625 216.019531" fill="#333"/></g><g id="change4_44"><path d="M 295.691406 213.046875 L 303.988281 215.425781 L 293.035156 217.449219 L 284.90625 215.050781 L 295.691406 213.046875" fill="#333"/></g><g id="change4_45"><path d="M 285.320312 210.070312 L 293.617188 212.449219 L 282.871094 214.449219 L 274.746094 212.046875 L 285.320312 210.070312" fill="#333"/></g><g id="change4_46"><path d="M 274.953125 207.097656 L 283.25 209.476562 L 272.714844 211.445312 L 264.585938 209.042969 L 274.953125 207.097656" fill="#333"/></g><g id="change4_47"><path d="M 264.585938 204.121094 L 272.878906 206.5 L 262.550781 208.441406 L 254.425781 206.039062 L 264.585938 204.121094" fill="#333"/></g><g id="change4_48"><path d="M 254.214844 201.148438 L 262.511719 203.527344 L 252.390625 205.441406 L 244.261719 203.039062 L 254.214844 201.148438" fill="#333"/></g><g id="change4_49"><path d="M 243.847656 198.171875 L 252.140625 200.554688 L 242.230469 202.4375 L 234.101562 200.035156 L 243.847656 198.171875" fill="#333"/></g><g id="change4_50"><path d="M 233.476562 195.199219 L 241.773438 197.578125 L 232.070312 199.433594 L 223.941406 197.035156 L 233.476562 195.199219" fill="#333"/></g><g id="change4_51"><path d="M 223.105469 192.222656 L 231.402344 194.601562 L 221.910156 196.433594 L 213.78125 194.03125 L 223.105469 192.222656" fill="#333"/></g><g id="change4_52"><path d="M 212.738281 189.25 L 221.03125 191.628906 L 211.75 193.433594 L 203.621094 191.027344 L 212.738281 189.25" fill="#333"/></g><g id="change4_53"><path d="M 202.367188 186.273438 L 210.664062 188.652344 L 201.589844 190.429688 L 193.460938 188.027344 L 202.367188 186.273438" fill="#333"/></g><g id="change4_54"><path d="M 192 183.300781 L 200.296875 185.679688 L 191.425781 187.425781 L 183.300781 185.023438 L 192 183.300781" fill="#333"/></g><g id="change4_55"><path d="M 175.40625 178.539062 L 189.925781 182.703125 L 181.265625 184.425781 L 167.039062 180.222656 L 175.40625 178.539062" fill="#333"/></g><g id="change4_56"><path d="M 314.867188 212.105469 L 336.835938 218.183594 L 325.507812 220.257812 L 303.972656 214.125 L 314.867188 212.105469" fill="#333"/></g><g id="change4_57"><path d="M 304.238281 209.164062 L 312.742188 211.519531 L 301.886719 213.53125 L 293.550781 211.15625 L 304.238281 209.164062" fill="#333"/></g><g id="change4_58"><path d="M 293.605469 206.226562 L 302.109375 208.578125 L 291.464844 210.5625 L 283.128906 208.1875 L 293.605469 206.226562" fill="#333"/></g><g id="change4_59"><path d="M 282.976562 203.285156 L 291.480469 205.640625 L 281.042969 207.59375 L 272.703125 205.222656 L 282.976562 203.285156" fill="#333"/></g><g id="change4_60"><path d="M 272.347656 200.347656 L 280.851562 202.699219 L 270.621094 204.625 L 262.28125 202.253906 L 272.347656 200.347656" fill="#333"/></g><g id="change4_61"><path d="M 261.714844 197.40625 L 270.21875 199.757812 L 260.199219 201.660156 L 251.859375 199.285156 L 261.714844 197.40625" fill="#333"/></g><g id="change4_62"><path d="M 251.085938 194.46875 L 259.589844 196.820312 L 249.777344 198.691406 L 241.4375 196.316406 L 251.085938 194.46875" fill="#333"/></g><g id="change4_63"><path d="M 240.453125 191.527344 L 248.960938 193.878906 L 239.355469 195.726562 L 231.019531 193.351562 L 240.453125 191.527344" fill="#333"/></g><g id="change4_64"><path d="M 229.824219 188.585938 L 238.328125 190.9375 L 228.933594 192.757812 L 220.597656 190.382812 L 229.824219 188.585938" fill="#333"/></g><g id="change4_65"><path d="M 219.195312 185.648438 L 227.699219 188 L 218.511719 189.789062 L 210.175781 187.414062 L 219.195312 185.648438" fill="#333"/></g><g id="change4_66"><path d="M 208.5625 182.707031 L 217.066406 185.0625 L 208.089844 186.820312 L 199.753906 184.449219 L 208.5625 182.707031" fill="#333"/></g><g id="change4_67"><path d="M 185.886719 176.4375 L 206.4375 182.121094 L 197.667969 183.855469 L 177.519531 178.117188 L 185.886719 176.4375" fill="#333"/></g><g id="change4_68"><path d="M 341.582031 213.066406 L 351.023438 215.582031 L 339.695312 217.65625 L 330.4375 215.117188 L 341.582031 213.066406" fill="#333"/></g><g id="change4_69"><path d="M 330.691406 210.160156 L 339.402344 212.484375 L 328.300781 214.53125 L 319.753906 212.183594 L 330.691406 210.160156" fill="#333"/></g><g id="change4_70"><path d="M 319.800781 207.257812 L 328.511719 209.578125 L 317.613281 211.597656 L 309.070312 209.25 L 319.800781 207.257812" fill="#333"/></g><g id="change4_71"><path d="M 306.730469 203.769531 L 317.621094 206.675781 L 306.933594 208.664062 L 296.25 205.730469 L 306.730469 203.769531" fill="#333"/></g><g id="change4_72"><path d="M 294.113281 205.144531 L 304.550781 203.1875 C 293.871094 200.339844 265.234375 192.703125 254.449219 189.824219 L 244.972656 191.652344 C 255.988281 194.679688 284.628906 202.539062 294.113281 205.144531" fill="#333"/></g><g id="change4_73"><path d="M 239.929688 185.953125 L 252.273438 189.246094 L 242.835938 191.066406 L 230.726562 187.742188 L 239.929688 185.953125" fill="#333"/></g><g id="change4_74"><path d="M 229.035156 183.050781 L 237.75 185.371094 L 228.589844 187.15625 L 220.046875 184.8125 L 229.035156 183.050781" fill="#333"/></g><g id="change4_75"><path d="M 218.144531 180.144531 L 226.859375 182.46875 L 221.230469 183.570312 L 212.621094 181.234375 L 218.144531 180.144531" fill="#333"/></g><g id="change4_76"><path d="M 207.253906 177.238281 L 215.96875 179.5625 L 212.03125 180.339844 L 203.394531 178.007812 L 207.253906 177.238281" fill="#333"/></g><g id="change4_77"><path d="M 201.410156 178.402344 L 210.011719 180.742188 L 206.0625 181.523438 L 197.535156 179.175781 L 201.410156 178.402344" fill="#333"/></g><g id="change4_78"><path d="M 196.363281 174.332031 L 205.074219 176.65625 L 199.710938 177.726562 L 191.101562 175.390625 L 196.363281 174.332031" fill="#333"/></g><g id="change1_3"><path d="M 8.695312 0.0078125 C 12.707031 0.0703125 195.664062 29.046875 195.664062 29.046875 C 201.230469 30.003906 205.714844 34.140625 207.117188 39.605469 L 256.28125 230.933594 C 257.394531 235.261719 249.878906 240.390625 249.878906 240.390625 L 72.167969 186.148438 C 60.679688 182.523438 55.183594 175.902344 52.402344 166.367188 L 0.71875 2.523438 C 1.925781 1.285156 2.449219 -0.09375 8.695312 0.0078125" fill="#aeb3e0"/></g><g id="change5_1"><path d="M 249.878906 240.390625 L 72.167969 186.148438 C 60.679688 182.523438 55.183594 175.902344 52.402344 166.367188 L 0.71875 2.523438 C 1.882812 1.328125 2.414062 0 8.0625 0 C 8.269531 0 8.480469 0.00390625 8.695312 0.0078125 C 12.707031 0.0703125 195.664062 29.046875 195.664062 29.046875 C 201.230469 30.003906 205.714844 34.140625 207.117188 39.605469 L 256.28125 230.933594 C 256.359375 231.234375 256.394531 231.535156 256.394531 231.84375 C 256.390625 233.238281 255.640625 234.667969 254.644531 235.953125 C 253.371094 237.605469 251.699219 239.011719 250.710938 239.773438 C 250.203125 240.167969 249.878906 240.390625 249.878906 240.390625" fill="#8e82b9"/></g><g id="change1_4"><path d="M 5.144531 0.585938 L 191.203125 32.617188 C 196.769531 33.574219 201.25 37.707031 202.65625 43.175781 L 251.820312 234.5 C 252.933594 238.828125 248.90625 242.722656 244.617188 241.464844 L 67.707031 189.71875 C 56.21875 186.09375 50.71875 179.472656 47.941406 169.9375 L 0.179688 6.148438 C -0.730469 3.027344 1.945312 0.0351562 5.144531 0.585938" fill="#aeb3e0"/></g><g id="change4_79"><path d="M 297.265625 172.597656 C 296.703125 172.597656 296.144531 172.660156 295.59375 172.785156 L 251.304688 182.976562 L 251.203125 183.101562 L 251.300781 183.230469 L 297.683594 195.285156 C 299.25 195.695312 300.914062 195.722656 302.496094 195.363281 L 345.953125 185.527344 C 346.042969 185.503906 346.054688 185.433594 346.054688 185.398438 L 345.960938 185.273438 L 299.183594 172.847656 C 298.558594 172.679688 297.910156 172.597656 297.265625 172.597656 Z M 300.246094 196.046875 C 299.347656 196.046875 298.445312 195.933594 297.574219 195.707031 L 251.191406 183.648438 C 250.9375 183.582031 250.769531 183.359375 250.773438 183.097656 C 250.773438 182.832031 250.949219 182.613281 251.210938 182.554688 L 295.496094 172.363281 C 296.742188 172.078125 298.058594 172.101562 299.296875 172.429688 L 346.070312 184.855469 C 346.324219 184.921875 346.492188 185.144531 346.488281 185.40625 C 346.484375 185.671875 346.308594 185.890625 346.050781 185.945312 L 302.59375 195.785156 C 301.824219 195.957031 301.035156 196.046875 300.246094 196.046875" fill="#333"/></g><g id="change6_1"><path d="M 97.621094 103.378906 C 98.402344 113.046875 107.101562 125.609375 117.050781 131.4375 C 127.003906 137.265625 134.4375 134.152344 133.652344 124.484375 C 132.871094 114.816406 124.171875 102.253906 114.222656 96.425781 C 104.273438 90.597656 96.839844 93.710938 97.621094 103.378906" fill="#fff"/></g></g></svg>