<?xml version="1.0" encoding="UTF-8"?><svg xmlns="http://www.w3.org/2000/svg" xmlns:xlink="http://www.w3.org/1999/xlink" height="1392.6" preserveAspectRatio="xMidYMid meet" version="1.0" viewBox="1281.2 1303.2 1438.2 1392.6" width="1438.2" zoomAndPan="magnify"><g><g id="change1_1"><path d="M1683.7,2693.7c-11.8-2.1-23.1-7.3-32-16.4c-2.5-2.6-4.9-5.4-6.9-8.6c-3.3,0.4-6.5,0.6-9.6,0.4 c-13.6-0.8-24.6-6.9-32.9-16.6l-1.3-1.6c-6.3-7.9-10.6-17.8-12.9-28.5c-3.9-17.8-2.7-39.1,3.8-57.5c10.5-29.6,27-53.2,49.9-67.7 c21.7-13.8,48.3-19.1,79.8-13.4c31.6,5.7,54.7,20,70.2,40.5c16.3,21.6,23.5,49.5,22.9,80.9c-0.3,19.5-6.7,39.9-16.6,55.3 c-6.4,9.9-14.4,18-23.7,23.2c-11.2,6.2-23.6,8.2-36.6,4.1c-3-0.9-5.9-2.2-8.9-3.8c-3,2.2-6.2,4.1-9.4,5.6 C1707.9,2694.9,1695.5,2695.8,1683.7,2693.7L1683.7,2693.7z M1682.9,2646.6c2.1,2.2,5.2,3.5,8.5,4.1c3.4,0.6,6.8,0.5,9.5-0.8 c2.4-1.1,4.8-3.4,7-7c1.2-2.1,2.8-4,4.8-5.7c9.2-7.8,23-6.6,30.8,2.7c2.9,3.5,5.4,5.3,7.3,6c0.6,0.2,1.4,0,2.3-0.5 c2.8-1.5,5.6-4.7,8.3-8.8c5.7-8.9,9.4-20.8,9.6-32.1c0.4-21.8-4.1-40.4-14.2-53.8c-9-11.9-23-20.3-42.9-23.9 c-20-3.6-36.1-0.7-48.6,7.3c-14.1,9-24.8,24.8-32,45.4c-3.8,10.8-4.5,23.2-2.3,33.6c1,4.4,2.3,8,4,10.3l0.6,0.6 c0.7,0.8,1.4,1.3,2,1.3c1.9,0.1,4.8-0.8,8.7-3c2.2-1.3,4.7-2.2,7.3-2.6c11.9-2,23.3,6,25.3,17.9 C1679.7,2641.8,1681.1,2644.7,1682.9,2646.6L1682.9,2646.6z" fill="#5E2719"/></g><g id="change2_1"><path clip-rule="evenodd" d="M1687.6,2672.2c-14.2-2.6-26.9-11.7-30.3-30.8 c-42.8,24.1-58.3-30.8-44.7-69.2c17.1-48.3,51.6-76.6,105.2-66.9c53.6,9.7,76,48.3,75.1,99.6c-0.7,40.8-34.5,86.7-66.1,49.2 C1716.9,2670.6,1701.8,2674.7,1687.6,2672.2L1687.6,2672.2z" fill="#FFF3E3" fill-rule="evenodd"/></g><g id="change3_1"><path clip-rule="evenodd" d="M1618.2,2612.5c-8.7-58,35.5-112.5,98.2-101.2 c36.7,6.6,57.2,28.1,64.8,58.2c3.3,13-0.2,8.6-9.1,2.9c-56.7-36-121.1-9.8-146.4,42C1622,2622.1,1619.5,2621,1618.2,2612.5 L1618.2,2612.5z" fill="#E6C6A6" fill-rule="evenodd"/></g><g id="change1_2"><path d="M1351.3,2529.9c-10.5-5.6-19.7-14-25.4-25.5c-1.6-3.2-3-6.7-3.9-10.3c-3.2-0.6-6.3-1.4-9.2-2.5 c-12.8-4.9-21.4-14.1-26.3-25.9c-4.1-9.7-5.3-21.2-4.2-32.9c1.7-18.2,9.4-38.2,21.2-53.7c19-25,42-42.4,68.2-49.2 c24.9-6.5,51.8-3.4,80.1,11.7c28.3,15.1,45.9,35.7,54.3,60c8.9,25.6,7.3,54.3-2.9,84c-6.3,18.5-18.6,36-32.7,47.6 c-9.1,7.5-19.3,12.8-29.8,14.9c-12.5,2.5-24.9,0.5-36-7.4c-2.6-1.8-5-3.9-7.3-6.3c-3.6,1.2-7.1,2-10.7,2.5 C1373.9,2538.4,1361.8,2535.5,1351.3,2529.9L1351.3,2529.9z M1364.9,2484.8c1.3,2.7,3.9,4.8,6.9,6.5c3,1.6,6.3,2.5,9.2,2.1 c2.5-0.3,5.2-1.6,8.2-4c1.9-1.9,4.2-3.4,6.9-4.5c11.2-4.6,24,0.7,28.6,11.9c1.7,4.2,3.5,6.8,5.1,8c0.5,0.3,1.4,0.4,2.4,0.2 c3.1-0.6,6.7-2.7,10.4-5.8c8.2-6.7,15.3-16.9,19-27.7c7.1-20.7,8.5-39.8,3-55.6c-4.9-14-15.7-26.3-33.6-35.9 c-17.9-9.5-34.1-11.7-48.5-7.9c-16.2,4.2-31.2,16.1-44.4,33.5c-6.9,9.1-11.5,20.7-12.4,31.2c-0.5,4.8-0.1,9,1.1,12 c0.4,1,0.9,1.7,1.4,1.9c1.7,0.7,4.5,0.7,8.6,0c2.6-0.7,5.4-0.8,8.3-0.4c12,1.7,20.4,12.7,18.7,24.7 C1363.3,2479.2,1363.8,2482.5,1364.9,2484.8L1364.9,2484.8z" fill="#5E2719"/></g><g id="change2_2"><path clip-rule="evenodd" d="M1361.6,2510.6c-12.7-6.8-22.1-19.4-19.4-38.6 c-48.1,9.8-46.1-47.2-21.4-79.6c31.1-40.8,72.6-57.2,120.6-31.6c48.1,25.6,57.6,69.2,41,117.7c-13.2,38.6-59.3,72-78,26.6 C1390,2518.1,1374.3,2517.4,1361.6,2510.6L1361.6,2510.6z" fill="#FFF3E3" fill-rule="evenodd"/></g><g id="change3_2"><path clip-rule="evenodd" d="M1313.7,2432.6c9.4-57.9,68.2-96.2,124.4-66.3 c32.9,17.5,45.9,44.3,43.9,75.3c-0.9,13.4-2.8,8.1-9.5,0c-43-51.6-112.3-46.4-152.2-4.8C1314.5,2442.8,1312.4,2441,1313.7,2432.6 L1313.7,2432.6z" fill="#E6C6A6" fill-rule="evenodd"/></g><g id="change1_3"><path d="M1516.2,1919.2c-4.7-1-9.7-1.8-14.8-2.3c-34.9-4-62.2,5.3-82.1,23.2c-20.9,18.8-34.7,47.2-41.5,80 c-1.3,6.3-2.4,13.1-3.2,20.4c-4.8,42.4,8.1,93.6,32.2,135.4c21.4,37.1,51.1,66,83.9,72.8c1.7,0.4,3.6,0.7,5.8,0.9l0.1,0 c28.3,3.2,55.9-13,78.5-38.5c24.9-28,43.3-66.5,51.1-104.2c1.1-5.6,2.1-11.5,2.8-17.6c4.9-42.7-2-83.1-22.7-114 C1588.1,1948.3,1558.6,1928,1516.2,1919.2L1516.2,1919.2z M1507,1868.2c5.9,0.7,12.2,1.7,19,3.1c56.1,11.6,95.8,39.4,120.9,76.8 c27.6,41.1,36.9,92.9,30.7,146.7c-0.8,6.9-2,14.2-3.6,21.8c-9.4,45.6-32,92.4-62.4,126.8c-32.7,36.8-74.7,60-120.6,54.7 c-3.1-0.4-6.5-0.9-10.1-1.7c-47.6-9.8-88.5-48-116.4-96.3c-29-50.3-44.5-112.8-38.5-165.2c0.9-8,2.2-16.2,4-24.6 c8.8-42.8,27.6-80.6,56.6-106.6C1416.6,1876.7,1456.7,1862.5,1507,1868.2L1507,1868.2z" fill="#5E2719"/></g><g id="change4_1"><path clip-rule="evenodd" d="M1521.1,1895.3c-104.3-21.5-160.3,51-170.8,142.4 c-10.5,91.5,52.1,217.6,135.5,234.9c83.5,17.2,157-89,167.5-180.5C1663.7,2000.6,1625.4,1916.8,1521.1,1895.3L1521.1,1895.3z" fill="#FCAF3A" fill-rule="evenodd"/></g><g id="change5_1"><path clip-rule="evenodd" d="M1521.1,1895.3c-82.6-17-135,24.9-158.3,88.5 c37.6-60.4,90.7-86.3,154.8-75c66.1,11.7,122.7,62.6,137.2,144.7C1651.4,1977.9,1610.5,1913.7,1521.1,1895.3L1521.1,1895.3z" fill="#FFEAB2" fill-rule="evenodd"/></g><g id="change6_1"><path clip-rule="evenodd" d="M1362.5,2050.2c-3.5,79.8,41,191.8,125.6,209.2 c83.1,17.1,154-74.8,165-165.9c-17.8,56.5-95.7,90.9-145.5,62c-30.6-17.8-71.7-64.9-30.7-135.2c-26.6,31.1-65.7,40.2-93.1,21.2 C1366.1,2029.2,1364,2016.6,1362.5,2050.2L1362.5,2050.2z" fill="#E3842B" fill-rule="evenodd"/></g><g id="change1_4"><path d="M1488.4,2023.9c3.5-5.2,2.1-12.2-3-15.7c-5.2-3.5-12.2-2.1-15.7,3c-32,47.4-30.9,88.6-12.2,118.7 c12.8,20.7,33.9,35.8,58.2,43.8c23.9,7.9,50.9,8.9,76,1.6c42-12.2,78.5-47.1,85.8-111.4c0.7-6.2-3.8-11.8-9.9-12.5 c-6.2-0.7-11.8,3.8-12.5,9.9c-6,53.5-35.6,82.4-69.6,92.3c-20.6,6-42.9,5.1-62.7-1.4c-19.4-6.4-36.1-18.2-46-34.2 C1462.4,2095,1462.2,2062.6,1488.4,2023.9L1488.4,2023.9z" fill="#5E2719"/></g><g id="change5_2"><path clip-rule="evenodd" d="M1549.9,1914.4c-19.8-6.6-37.7-3.8-40.1,6.4 c-2.4,10.2,11.8,23.8,31.5,30.4c19.8,6.6,37.7,3.8,40.1-6.4C1583.8,1934.6,1569.7,1921,1549.9,1914.4L1549.9,1914.4z" fill="#FFEAB2" fill-rule="evenodd"/></g><g id="change5_3"><path clip-rule="evenodd" d="M1585.2,1971.8c-11-3.7-21.1-2.1-22.4,3.6 c-1.3,5.7,6.6,13.3,17.6,17c11,3.7,21.1,2.1,22.4-3.6C1604.1,1983.1,1596.2,1975.5,1585.2,1971.8L1585.2,1971.8z" fill="#FFEAB2" fill-rule="evenodd"/></g><g id="change1_5"><path d="M1707.3,2512.5c-1.5,36.2,19.4,60.8,47.8,73.6c14.2,6.4,30.3,10.1,46.5,11c16.2,0.9,32.6-1,47.5-5.7 c29.2-9.2,52-29.8,53.6-61.8c-2.3-7.6-15.2-16.3-33.1-24.2c-16.1-7.1-35.5-12.5-55.6-15.5c-20.1-3-40.5-3.6-58.6-1 C1733.4,2491.9,1715.2,2499.4,1707.3,2512.5L1707.3,2512.5z M1733.4,2634.3c-48.4-21.8-83.7-65-78.5-129.5 c0.1-3.4,0.8-6.9,2.2-10.2c15.2-34.3,49.9-52.2,90.8-58.1h0.1c23.4-3.3,49-2.7,73.6,1c24.7,3.7,48.8,10.5,69.2,19.5 c35,15.5,60.5,38.7,64.5,66.7l0,0c0.2,1.3,0.3,2.6,0.2,3.9c-0.8,60.4-40.1,98.4-90.5,114.3c-20.8,6.6-43.7,9.2-66.3,8 C1776.1,2648.5,1753.5,2643.3,1733.4,2634.3L1733.4,2634.3z" fill="#5E2719"/></g><g id="change6_2"><path clip-rule="evenodd" d="M1681.3,2505.1c-14.1,149.6,246.1,158.2,247.8,22 C1920.5,2466.1,1716.7,2425.1,1681.3,2505.1L1681.3,2505.1z" fill="#E3842B" fill-rule="evenodd"/></g><g id="change1_6"><path d="M1616.1,1685.3c-2.7,54.3,0.3,103.5,8.5,149c9.5,52.6,26,100.6,48.7,146.1c5.7,11.5,2.3,25.1-7.5,32.7 c-33.6,25.8-62.1,50.7-85.5,80.2c-23.1,29.1-41.8,63.7-56.4,109.9c-3,9.5-10.8,16.1-19.9,18c-53.8,15.2-91.2,41.9-113.2,71.5 c-20.4,27.4-27.1,56.7-20.7,80l0.4,1.3c0.6,1.9,1.1,3.7,1.7,5.3c8.5,23.5,27.1,40.5,54.7,48.8c31.6,9.4,74.4,8.1,127.6-6.6 c12.1-3.3,24.4-7.3,37-11.8c11-3.9,22.9-0.1,29.7,8.6c50.8,59.9,115.6,94.7,183.1,106.6c46.4,8.2,93.9,5.7,139.2-6.7 c45.4-12.4,88.6-34.7,126-66.2c58.6-49.3,102.8-121.4,119-213.2c2-11.5,11.2-20,22.2-21.6c68.2-10.4,130.8-30.4,187.9-59.8 c48-24.7,92.3-56,133.1-93.7c-10.1-6.5-20.7-13.2-31.5-20c-20.3-12.7-41.5-25.6-63.2-38.5c-12.6-7.4-16.7-23.6-9.3-36.2l0.1-0.2 c3.9-6.6,7.3-13.3,9.9-20.2c2.7-7,4.8-14.3,6.4-21.9c9.2-45.8,12.7-90.6,10.1-133.1c-2.4-40.9-10.6-79.7-24.6-115.2 c-2.2-5.5-2.4-11.4-0.9-16.7c10.1-43.1,16.6-99.6,16.2-145.3c-0.3-30.4-2.2-53.8-6.3-59.7c-3.7,0.1-14.5,4.7-28.7,11.7 c-26.3,12.9-57.5,34.3-83.8,55.8c-8.8,7.1-20.7,7.7-30,2.3c-36.7-20.3-71.6-34.1-107.5-41.6c-35.9-7.4-73.3-8.6-115.3-3.8 c-11.7,1.3-22.6-5.2-27.1-15.5c-14.3-26.2-37.1-55-59.5-77c-17.2-16.9-31.8-29-37.8-30.4c-6,3.4-16.9,24.5-29.1,52.8 c-18.2,42.5-34.1,97.6-41.3,141.1c-0.9,5.6-3.5,10.4-7.1,14.2c-16.8,17.3-32,36.6-45.4,57.8c-13.8,21.9-25.8,45.6-35.9,70.8 c-4.9,12.4-18.1,19-30.7,15.9c-30.2-7.3-59.9-13.5-89-18.2C1652,1689.6,1633.9,1687.1,1616.1,1685.3L1616.1,1685.3z M1572.7,1843.7 c-10.4-57.6-13.2-119.8-7.6-189c1.2-14.4,13.6-25.2,28-24.3c27.7,1.8,56.4,5.2,85.8,10c23.3,3.8,47,8.5,71.2,13.9 c9.3-20.6,19.7-40.2,31.3-58.5c13.9-22,29.4-42.2,46.5-60.5c8.4-46,24.8-101.7,43.4-145.1c19.4-45.2,43.5-79.5,68.7-84.5l0,0.1 c0.8-0.2,1.6-0.3,2.5-0.4c21.4-2.2,52.3,17,81.4,45.5c21.9,21.5,44.4,49,60.9,75.8c40.7-3.3,78.2-1.3,114.8,6.3 c36.2,7.5,71.2,20.5,107.2,39c25.8-19.8,54.7-38.7,80.1-51.2c29.9-14.6,57.5-20.6,76.7-11.3c1.2,0.6,2.4,1.2,3.6,2 c21.3,14.2,30.3,55.1,30.7,104.3c0.4,47.5-5.9,105.2-15.9,150.7c14.2,38.5,22.5,80.1,25.1,123.8c2.8,46.8-1,96-11.2,146.5 c-2.2,10.8-5.1,21-8.9,30.6l-1.9,4.7c14.8,8.9,29.2,17.8,43.1,26.4c20.8,13,41,26,60.3,38.8c1.4,0.9,2.7,2,3.9,3.2 c10.4,10.2,10.5,26.9,0.3,37.3c-50.9,52-107.5,94.2-169.8,126.2c-57.2,29.4-119.1,50.2-185.9,62.1c-21,96-69.9,172.3-133.6,225.9 c-43.3,36.5-93.4,62.4-146,76.7c-52.9,14.4-108.3,17.4-162.1,7.9c-74.1-13.1-145.4-49.5-202.9-111.8c-8.2,2.7-16.1,5.1-23.8,7.2 c-63.3,17.5-116.1,18.5-156.8,6.4c-44.6-13.3-74.9-41.8-89.3-81.7c-1.1-3-2-5.9-2.9-8.7l-0.7-2.2l0,0 c-10.3-38.3-0.9-84.1,29.3-124.9c26.6-35.8,69.6-68.1,129.5-87.3c16-46,36.3-82,61-113.3c22.6-28.5,48.4-52.5,77.8-76.1 C1596.6,1940.4,1581.7,1893.9,1572.7,1843.7L1572.7,1843.7z" fill="#5E2719"/></g><g id="change4_2"><path clip-rule="evenodd" d="M1591.4,1656.8c-10.8,134.1,10.5,240,58.3,335.5 c-70.1,53.9-119.8,104.3-151,203c-121.8,33.6-171,122.7-154,184.4c21.1,76.5,111.7,106.8,255.8,54.8 c189.1,224.5,558.5,124.9,614.2-191.2c142.1-21.6,261.3-83.8,359.2-183.8c-37-24.6-78.5-50.6-123.4-77.2 c9.1-15.1,15.8-31.9,19.5-50.5c19.2-95.5,14.7-186.4-15.7-263.2c19.6-83.1,26.5-216-2-235c-23.5-12.8-92.5,28.8-142.9,70 c-78.5-43.6-149.5-59.1-239.1-48.8c-30.6-57.4-98.8-125.7-125.4-123c-33.6,6.6-78.5,131.8-92.5,216.1 c-36.5,37.4-65.5,84-86.9,137.4C1705,1670.3,1646.3,1660.4,1591.4,1656.8L1591.4,1656.8z" fill="#FCAF3A" fill-rule="evenodd"/></g><g id="change6_3"><path clip-rule="evenodd" d="M1498.7,2195.2c-38.5,10.6-84.1,46.2-105.9,74.2 c-13.8,17.8-4.9,19.5,13.5,25.9c70.1,24.4,120.7,91.9,63.7,165c36.5,0.3,80.2-7.8,130.5-25.9c148.8,167,403,133.5,533.9-31.2 c20.1-25.3-0.8-28.2-25.8-19.4c-253.4,90.2-553.8-56.7-530.1-274.9c2.7-24.4-5-25.6-21.1-6.7 C1533.5,2130.3,1504.6,2176.5,1498.7,2195.2L1498.7,2195.2z" fill="#E3842B" fill-rule="evenodd"/></g><g id="change6_4"><path clip-rule="evenodd" d="M2229.5,2240.8c55.1-9.6,120.2-44,171.6-70.3 c25.9-13.2,22.5-16.6-0.2-21.5c-37.1-8-63.8-46.3-27.6-84.8c-56.7,9.4-113.4,18.8-170.1,28.1 C2244,2130.2,2240.5,2184.1,2229.5,2240.8L2229.5,2240.8z" fill="#E3842B" fill-rule="evenodd"/></g><g id="change6_5"><path clip-rule="evenodd" d="M1610.6,1823.3c-4.3,33,10.8,89.9,31.2,159 c33.4-19.8,94.9-62.5,152.5-38.2c-50.1-30.4-66.2-73.3-65.7-127.1c-33.1,16-61.1,13.3-90.9-1.7 C1618.6,1805.5,1614.2,1796.3,1610.6,1823.3L1610.6,1823.3z" fill="#E3842B" fill-rule="evenodd"/></g><g id="change1_7"><path d="M1664.7,1985.7c-43.5,27.1-79.3,62.9-110.3,103.9c-29.1,38.4-51.1,83.4-63.6,135.8 c-10.2,42.6-35.1,34.6-26.2-3.8c13.3-57.2,37.2-106.3,68.7-147.9c33.1-43.7,71.3-81.6,117.5-110.3 C1683.7,1942.7,1703.6,1961.4,1664.7,1985.7L1664.7,1985.7z" fill="#5E2719"/></g><g id="change1_8"><path clip-rule="evenodd" d="M2214.2,2246.1c5.4-1.8,26.2-3.5,31.6-5.3 c0.6-6.5,2-41.9-2.7-60.4c-3.9-15.2-14.6-14.9-18,2C2222.1,2196.5,2219.4,2221.4,2214.2,2246.1L2214.2,2246.1z" fill="#5E2719" fill-rule="evenodd"/></g><g id="change1_9"><path clip-rule="evenodd" d="M1577.2,2385.2c8.7,24.6,27.1,53,40.4,68.2l-39.7-5.1 c-6.7-18.4-16.2-41.9-17.5-59.9C1559.1,2370.2,1570.6,2366.5,1577.2,2385.2L1577.2,2385.2z" fill="#5E2719" fill-rule="evenodd"/></g><g id="change1_10"><path clip-rule="evenodd" d="M2309.3,1688.4c-30.7-6.7-62,16.7-69.8,52.4 c-7.8,35.7,10.7,70,41.4,76.8c30.7,6.7,62-16.7,69.8-52.4C2358.5,1729.5,2340,1695.1,2309.3,1688.4L2309.3,1688.4z" fill="#5E2719" fill-rule="evenodd"/></g><g id="change2_3"><path clip-rule="evenodd" d="M2341.3,1603.4c26.8,16.5,22,43.5-9,37.6 c-18.4-3.5-33.9-2.9-55.6,1.7c-25.4,5.4-31.6-16.1-22.1-32.7C2271.8,1580.1,2322.9,1592.1,2341.3,1603.4L2341.3,1603.4z" fill="#FFF3E3" fill-rule="evenodd"/></g><g id="change7_1"><path clip-rule="evenodd" d="M2290.8,1708.2c-12.6-2.8-25.3,6.8-28.5,21.4 c-3.2,14.6,4.4,28.6,16.9,31.4c12.6,2.8,25.3-6.8,28.5-21.4C2311,1725,2303.4,1711,2290.8,1708.2L2290.8,1708.2z" fill="#FFF" fill-rule="evenodd"/></g><g id="change1_11"><path clip-rule="evenodd" d="M2036.8,1628.5c30.7,6.7,49.3,41.1,41.4,76.8 c-7.8,35.7-39.1,59.1-69.8,52.4c-30.7-6.7-49.3-41.1-41.4-76.8C1974.9,1645.2,2006.1,1621.8,2036.8,1628.5L2036.8,1628.5z" fill="#5E2719" fill-rule="evenodd"/></g><g id="change2_4"><path clip-rule="evenodd" d="M2043.4,1538c-31.3,3.7-38.2,30.2-7.6,37.9 c18.2,4.6,32,11.5,49.8,24.8c20.8,15.6,35.4-1.4,33.8-20.5C2116.3,1546,2064.8,1535.4,2043.4,1538L2043.4,1538z" fill="#FFF3E3" fill-rule="evenodd"/></g><g id="change7_2"><path clip-rule="evenodd" d="M2045.3,1654.3c12.6,2.8,20.1,16.8,16.9,31.4 c-3.2,14.6-16,24.2-28.5,21.4c-12.5-2.8-20.1-16.8-16.9-31.4C2020,1661.1,2032.7,1651.5,2045.3,1654.3L2045.3,1654.3z" fill="#FFF" fill-rule="evenodd"/></g><g id="change6_6"><path clip-rule="evenodd" d="M2447.1,1727.8c43.2,258-52.8,365.8-276.9,336 c-46-6.1-34.6-15,4-17.4c177-11,252.2-128.9,255.7-312.1C2430.8,1683.7,2438,1673.4,2447.1,1727.8L2447.1,1727.8z" fill="#E3842B" fill-rule="evenodd"/></g><g id="change2_5"><path clip-rule="evenodd" d="M2473.3,1913.9c-1,5.9-2.4,11.8-3.3,17.8 c-27,171.6-280.3,168.5-263,161.7c-19.5,214.9-256.9,511.5-487.3,341.1c-159.9-118.3-55.3-306,43.5-370 c42.2-27.4,68.9-80.6,48.3-102c-52-53.9-88.8-109.3-75-178c1.2-6,2.5-11.9,3.8-17.7c66.8-15.6,161.5,16.6,218.5,66.5 c52-35.3,101.5-55.3,192.1-36.6c90.8,17.7,128.7,55.3,163.1,107.9C2385.8,1880.5,2417.7,1873.7,2473.3,1913.9L2473.3,1913.9z" fill="#FFF3E3" fill-rule="evenodd"/></g><g id="change3_3"><path clip-rule="evenodd" d="M2051.9,2399.9c-91.8,85.9-212.9,122.8-332.1,34.6 c-59.2-43.8-82.1-97.1-82.5-150.1C1724,2383.1,1891.7,2434.7,2051.9,2399.9L2051.9,2399.9z" fill="#E6C6A6" fill-rule="evenodd"/></g><g id="change3_4"><path clip-rule="evenodd" d="M2404.8,1885.1c15.5,1.3,31.6,6.1,47.6,15.3 c-19.7,79.1-72,172-215.7,164.3c-30.2-1.6-32.5-15.6-2.3-22.8C2352.9,2013.8,2365.4,1955.7,2404.8,1885.1L2404.8,1885.1z" fill="#E6C6A6" fill-rule="evenodd"/></g><g id="change1_12"><path clip-rule="evenodd" d="M2356.5,1515.5c26.1-19,54.6-32.4,66-25.7 c12.6,9,12.5,59,6.2,101.9c-4.6,31.4-6.3,30.7-16,11.5c-13.7-26.8-32.9-48.9-57.6-69C2343.2,1524.6,2343.9,1524.7,2356.5,1515.5 L2356.5,1515.5z" fill="#5E2719" fill-rule="evenodd"/></g><g id="change1_13"><path clip-rule="evenodd" d="M2010.2,1446c-18.8-28-42.4-51.9-56.7-50.4 c-16.4,3.2-36.5,49.1-47.6,91.1c-8.1,30.6-6.1,30.7,11.7,17.1c24.8-19.1,53.3-31.6,86.6-40.1 C2020,1459.7,2019.3,1459.6,2010.2,1446L2010.2,1446z" fill="#5E2719" fill-rule="evenodd"/></g><g id="change5_4"><path clip-rule="evenodd" d="M1744.7,1749c21.1-80.3,57.5-149.6,107.8-201.2 c14-84.3,58.9-209.5,92.5-216.1c26.7-2.7,94.8,65.6,125.4,123c89.6-10.3,160.6,5.2,239.1,48.8c-78.4-30.4-156.3-46-243.8-37.1 c-54.5-86.6-103.6-125.5-120.4-120.9c-28.7,7.8-68.4,131.6-76.1,209.7C1815,1612.3,1775.8,1678.2,1744.7,1749L1744.7,1749z" fill="#FFEAB2" fill-rule="evenodd"/></g><g id="change1_14"><path d="M1742.3,1671.7c2.5-6.9,10-10.5,16.9-8c6.9,2.5,10.5,10,8,16.9c-18,50.2-32.3,95.9-28.5,138.7 c3.3,37.5,19.6,76.2,61.2,113.6c7.5,6.7,33.4,30,26.2,36.8c-4.5,7.3-30.8-9-37.7-15c-51-44-72.2-87.6-76.2-133.2 C1708.1,1773.6,1723.2,1724.9,1742.3,1671.7L1742.3,1671.7z" fill="#5E2719"/></g><g id="change1_15"><path d="M2455.4,1974.2c3.7-6.3,11.8-8.4,18.1-4.7c6.3,3.7,8.4,11.8,4.7,18.1c-21.5,36.5-58.5,69-104.1,91.6 c-42.6,21.2-100.2,27.2-152.5,26.4c-32.2,0.3-43.6-21.5,1.9-21.7c48,0.7,99.8-8.9,139-28.4 C2403.4,2035.3,2436.5,2006.4,2455.4,1974.2L2455.4,1974.2z" fill="#5E2719"/></g><g id="change1_16"><path clip-rule="evenodd" d="M2201.3,1834.2c-15.4,17.5-38.7,22.9-67.5,26.3 c-25.1-14.4-44.5-28.5-51.8-50.6C2066.8,1764,2233.3,1797.9,2201.3,1834.2L2201.3,1834.2z" fill="#5E2719" fill-rule="evenodd"/></g><g id="change1_17"><path clip-rule="evenodd" d="M2030.2,1900.7c36.3,7.5,69.5,5,97.2-14.8 c18.2,26,41.8,45.6,70.8,59c-12.5,34.9-53.6,55.3-106.7,41.3C2038.3,1972.2,2017.7,1935.7,2030.2,1900.7L2030.2,1900.7z" fill="#5E2719" fill-rule="evenodd"/></g><g id="change8_1"><path clip-rule="evenodd" d="M2160.5,1963.9c-17.2,9.6-39,12.7-63.3,6.3 c-24.2-6.4-40.3-19.4-48.2-35.6c17.2-9.6,39-12.7,63.3-6.3C2136.5,1934.6,2152.5,1947.7,2160.5,1963.9L2160.5,1963.9z" fill="#F26D81" fill-rule="evenodd"/></g><g id="change1_18"><path d="M2048.4,1854.4c-21.5,23.5-9.7,44.5,22.7,45.5c18.9,0.6,39.7-6,49.4-18.4l9-43.7l23.6,4.8l-9.4,45.8 l-0.4,1.9l-1.2,1.7c-13.6,19.9-44,30.5-71.1,29.6c-50.2-1.6-74.6-47.6-41.3-78.9c6.7-6.3,14.4-5.6,17.9-0.9 C2049.3,1844,2051.8,1848,2048.4,1854.4L2048.4,1854.4z" fill="#5E2719"/></g><g id="change1_19"><path d="M2211.4,1887.7c8.8,29.7-8.4,44.7-35.1,33.7c-15.6-6.4-29.9-20.2-33.3-35.3l8.8-43.8l-20.9-4.3l-9.2,45.9 l-0.4,1.9l0.3,2c3.7,23.4,24.4,44.5,46.7,53.7c41.3,17,77.9-16.5,62.4-57.7c-3.1-8.3-9.6-10.5-14.2-7.5 C2214.5,1877.7,2211,1880.5,2211.4,1887.7L2211.4,1887.7z" fill="#5E2719"/></g><g id="change1_20"><path d="M1705.1,1486.6c14.5,2.6,28.4,9,39.4,20.2c3.6,3.7,6.9,7.8,9.7,12.5c4.8-0.8,9.4-1.1,13.9-0.8 c16.5,0.9,29.8,8.4,39.9,20.3c8.6,10.1,14.4,23,17.5,37.3c4.9,22.4,3.4,49.1-4.8,72.2c-13.3,37.5-34.1,67.2-62.9,85.6 c-27.3,17.4-60.7,24-100.4,16.8c-39.8-7.2-68.9-25.1-88.3-50.9c-20.5-27.2-29.6-62.4-28.8-102.2c0.4-24.5,8.4-50.1,20.9-69.4 c7.9-12.3,17.9-22.4,29.4-28.7c13.6-7.5,28.7-9.9,44.4-5c4.3,1.3,8.6,3.2,12.8,5.7c4.2-3.3,8.7-6.1,13.4-8.3 C1675.4,1485.1,1690.7,1484,1705.1,1486.6L1705.1,1486.6z M1709.4,1541.4c-3.3-3.4-7.9-5.4-12.9-6.3c-5.1-0.9-10.1-0.7-14.4,1.3 c-3.5,1.6-6.9,4.7-9.9,9.5c-1.4,2.7-3.4,5.3-5.9,7.4c-10.4,8.8-26,7.5-34.8-2.9c-4.3-5.1-8-7.9-11.1-8.9c-1.8-0.6-3.8-0.2-5.8,0.9 c-4.1,2.3-8.2,6.7-12,12.5c-7.7,12-12.7,28-13,43.4c-0.5,28.9,5.4,53.7,19,71.6c12.1,16,31,27.4,57.6,32.2 c26.7,4.8,48.4,0.9,65.3-9.9c18.9-12,33.1-33.1,42.8-60.5c5.1-14.5,6.1-31.3,3-45.3c-1.5-6.8-3.8-12.3-6.7-15.8 c-1.5-1.7-3.2-2.8-5.1-2.9c-3.2-0.2-7.5,1.1-13.2,4.3c-2.5,1.5-5.3,2.5-8.3,3c-13.4,2.3-26.2-6.7-28.5-20.2 C1714.4,1548.7,1712.2,1544.3,1709.4,1541.4L1709.4,1541.4z" fill="#5E2719"/></g><g id="change2_6"><path clip-rule="evenodd" d="M1700.8,1510.9c18.3,3.3,34.7,15.1,39,39.8 c55.2-31.1,75.2,39.7,57.7,89.3c-22.1,62.4-66.5,98.9-135.7,86.4c-69.2-12.5-98-62.3-96.8-128.4c0.9-52.6,44.5-111.9,85.3-63.4 C1662.9,1512.8,1682.5,1507.5,1700.8,1510.9L1700.8,1510.9z" fill="#FFF3E3" fill-rule="evenodd"/></g><g id="change3_5"><path clip-rule="evenodd" d="M1790.3,1587.8c11.3,74.9-45.8,145.1-126.6,130.5 c-47.3-8.6-73.8-36.3-83.6-75.1c-4.2-16.8,0.2-11.1,11.7-3.8c73.2,46.4,156.2,12.7,188.8-54.2 C1785.4,1575.5,1788.7,1576.9,1790.3,1587.8L1790.3,1587.8z" fill="#E6C6A6" fill-rule="evenodd"/></g><g id="change1_21"><path clip-rule="evenodd" d="M1695,1542.9c-12.5-2.3-24.8,8.1-27.5,23.1 c-2.7,15,5.2,29,17.7,31.3c12.5,2.3,24.8-8.1,27.5-23.1C1715.4,1559.1,1707.5,1545.1,1695,1542.9L1695,1542.9z" fill="#5E2719" fill-rule="evenodd"/></g><g id="change1_22"><path clip-rule="evenodd" d="M1759.1,1570.9c-12.5-2.3-24.8,8.1-27.5,23.1 c-2.7,15,5.2,29,17.7,31.3s24.8-8.1,27.5-23.1C1779.5,1587.1,1771.6,1573.1,1759.1,1570.9L1759.1,1570.9z" fill="#5E2719" fill-rule="evenodd"/></g><g id="change1_23"><path clip-rule="evenodd" d="M1622.1,1546.1c-12.5-2.3-24.8,8.1-27.5,23.1 c-2.7,15,5.2,29,17.7,31.3c12.5,2.3,24.8-8.1,27.5-23.1C1642.5,1562.3,1634.6,1548.3,1622.1,1546.1L1622.1,1546.1z" fill="#5E2719" fill-rule="evenodd"/></g><g id="change1_24"><path clip-rule="evenodd" d="M1620.5,1648.3c-3.9,21.5,17,43.2,46.6,48.6 c29.6,5.4,56.8-7.7,60.7-29.2c3.9-21.5-17-43.2-46.6-48.6C1651.6,1613.8,1624.4,1626.8,1620.5,1648.3L1620.5,1648.3z" fill="#5E2719" fill-rule="evenodd"/></g><g id="change1_25"><path d="M2621.2,1838.9c13.3,4.5,25.3,12.8,33.8,25.7c2.6,3.9,4.8,8.2,6.5,12.8c4.2-0.2,8.2,0.1,11.9,0.8 c14.9,2.8,26,11.4,33.6,23.8c6.4,10.4,9.9,23.4,10.8,37.4c1.6,23.8-4.6,52.2-16.8,75.2c-18.8,35.2-43,61.9-72.6,76.3 c-28.2,13.7-60.3,16.1-96,4c-36.1-12.3-60.1-34-73.8-62.5c-14.3-29.9-16.6-66.1-8.8-105.5c5-25.4,18-51.2,34.2-68.8 c9.3-10.2,20-17.9,31.3-22.1c13.4-4.9,27.3-4.6,40.7,2.5c3.3,1.8,6.5,3.9,9.6,6.5c4.6-2.8,9.3-5,14-6.6 C2593.9,1833.7,2608.3,1834.5,2621.2,1838.9L2621.2,1838.9z M2617.2,1892.8c-2.2-3.4-5.9-5.7-10.1-7.2c-4.5-1.5-9.3-1.9-13.7-0.4 c-4,1.4-8.3,4.5-12.6,9.9l-0.1-0.1c-1.7,2.1-3.7,4-6.1,5.5c-11,6.9-25.1,3-31.5-8.7c-2.8-5.1-5.5-8.1-7.9-9.4 c-1.4-0.7-3.2-0.6-5.1,0.1c-4.1,1.5-8.6,5-13.1,9.9c-10.3,11.2-18.7,27.8-21.9,44.3c-5.6,28.7-4.6,54,4.7,73.3 c8.2,17,23.4,30.3,46.8,38.3c23.9,8.1,44.8,6.8,62.6-1.9c20.2-9.9,37.5-29.4,51.5-55.7c7.9-14.9,12-32.9,11-47.7 c-0.4-5.8-1.5-10.7-3.5-14c-0.8-1.3-1.8-2.1-3-2.3c-3.1-0.6-7.6,0.2-13.7,2.8c-2.7,1.1-5.7,1.7-8.8,1.7 c-12.7-0.2-22.8-11.3-22.6-24.9C2620.4,1900.3,2619.2,1895.9,2617.2,1892.8L2617.2,1892.8z" fill="#5E2719"/></g><g id="change2_7"><path clip-rule="evenodd" d="M2614.2,1862.3c16.4,5.6,29.6,19.4,29.2,44.4 c56.8-24,62.8,48.9,37.7,96c-31.6,59.2-79.4,90-141.4,68.9c-62-21.1-80-74.2-67.1-139.8c10.2-52.2,61.2-105.7,90.5-52.4 C2578.7,1859.5,2597.8,1856.7,2614.2,1862.3L2614.2,1862.3z" fill="#FFF3E3" fill-rule="evenodd"/></g><g id="change3_6"><path clip-rule="evenodd" d="M2683.6,1950c-2.8,75.8-68.3,138.6-140.8,113.9 c-42.4-14.4-62.1-45.3-64.3-85.1c-0.9-17.2,2.2-11,11.5-2.3c59.7,55.3,142.8,32.1,185-30.3C2681.2,1937.1,2684,1938.9,2683.6,1950 L2683.6,1950z" fill="#E6C6A6" fill-rule="evenodd"/></g><g id="change1_26"><path clip-rule="evenodd" d="M2603.1,1893.4c-11.2-3.8-24.5,4.9-29.7,19.5 c-5.2,14.6-0.3,29.5,10.9,33.3c11.2,3.8,24.5-4.9,29.7-19.5C2619.2,1912.1,2614.3,1897.2,2603.1,1893.4L2603.1,1893.4z" fill="#5E2719" fill-rule="evenodd"/></g><g id="change1_27"><path clip-rule="evenodd" d="M2657.7,1929.2c-11.2-3.8-24.5,4.9-29.7,19.5 c-5.2,14.6-0.3,29.5,10.9,33.3c11.2,3.8,24.5-4.9,29.7-19.5C2673.7,1947.9,2668.8,1933,2657.7,1929.2L2657.7,1929.2z" fill="#5E2719" fill-rule="evenodd"/></g><g id="change1_28"><path clip-rule="evenodd" d="M2534.9,1887.5c-11.2-3.8-24.5,4.9-29.7,19.5 c-5.2,14.6-0.3,29.5,10.9,33.3c11.2,3.8,24.5-4.9,29.7-19.5C2550.9,1906.2,2546,1891.3,2534.9,1887.5L2534.9,1887.5z" fill="#5E2719" fill-rule="evenodd"/></g><g id="change1_29"><path clip-rule="evenodd" d="M2515.2,1988.9c-7.4,20.9,8.1,45.1,34.7,54.1 c26.6,9,54.1-0.6,61.5-21.4c7.4-20.9-8.1-45.1-34.7-54.1C2550.2,1958.4,2522.6,1968,2515.2,1988.9L2515.2,1988.9z" fill="#5E2719" fill-rule="evenodd"/></g><g id="change3_7"><path clip-rule="evenodd" d="M2004.6,2062.8c-38.3-15.9-72.8-52.9-82.2-43.4 c-7.9,8.1,8.3,69.8,62.1,92.1c57.3,23.7,108.8-10,109-21.3C2093.6,2076.8,2043,2078.6,2004.6,2062.8L2004.6,2062.8z" fill="#E6C6A6" fill-rule="evenodd"/></g></g></svg>