<?xml version="1.0" encoding="UTF-8"?><svg xmlns="http://www.w3.org/2000/svg" xmlns:xlink="http://www.w3.org/1999/xlink" height="2959.2" preserveAspectRatio="xMidYMid meet" version="1.0" viewBox="786.3 516.4 2433.6 2959.2" width="2433.6" zoomAndPan="magnify"><g><g><g><path d="M2305.6,3003.8c-3.1-43.6,4.4-72.3,11.8-101.1c5.1-19.5,10.2-39,7.9-63.9c-3.1-34.7,22.5-65.5,57.2-68.6 c8.2-0.7,16.1,0.1,23.5,2.3c133.6,39.5,232.1,54.9,296.5,37.9c41.9-11.1,69.2-41.5,82.8-95.3c-25.7-28.6-45.3-63.7-59-101.4 c-19.4-53.6-27.1-113.6-23.4-167.6c2.1-31.3,12.7-60.7,29.5-86.9c23.3-36.5,58.8-66.7,99.8-86.6c40.2-19.6,86.6-29.7,132.4-26.5 c36.5,2.5,72.8,13.4,105.9,34.5c60.1,38.4,102.4,106.4,124.6,185.3c21.8,77.4,24.8,167.2,6.4,248.8c-6.2,27.7-14.4,54.5-24.5,80 c-43.4,109.9-124.3,209.3-240.3,271c-114.2,60.7-261.7,84.4-439.6,44.4c-48.9-11-99.4-26.5-151.4-47.1 C2320.7,3053.1,2305.5,3029.2,2305.6,3003.8L2305.6,3003.8z M2439.8,2934.5c-2.2,8.5-4.4,17-6.1,26c31.8,11,62.1,19.7,91.1,26.2 c145.1,32.6,263,14.6,352.4-33c87.6-46.6,148.8-122,181.9-205.6c8.2-20.7,14.5-41.2,19-61.2c13.7-61.1,11.5-128.6-4.9-186.8 c-14.2-50.6-38.4-92.4-70.6-112.9c-14-8.9-30-13.6-46.4-14.7c-23.4-1.6-47.6,3.8-68.9,14.1c-20.6,10-37.8,24.2-48.2,40.5 c-5.5,8.7-9,18-9.7,27.5c-2.6,37.8,2.6,79.3,15.9,116c10.9,30,26.9,56.2,47.9,72.7c17.1,13.5,26.8,35.6,23.5,58.7 c-18.6,130.4-78,203.4-182,230.8c-74.3,19.6-170,11.4-289.9-18.6C2443.3,2921.2,2441.6,2927.8,2439.8,2934.5L2439.8,2934.5z" fill="#572316"/></g><g><path clip-rule="evenodd" d="M2369,3004c-6.6-71.8,25.9-99.1,19.3-170.8 c289,85.6,436.8,63.7,465.8-140c-65.3-51.2-93.9-155.7-87.9-242.8c7.3-105.5,165-183.8,270.4-116.5 c94.5,60.3,134.6,227.4,103.2,366.9C3083.3,2952.2,2815.9,3180.6,2369,3004L2369,3004z" fill="#FEA726" fill-rule="evenodd"/></g><g><path clip-rule="evenodd" d="M2369,3004c-6.6-71.8,25.9-99.1,19.3-170.8 c271.7,80.5,418.5,65.9,459.3-105.4l0,0c120.2,47.6,199.6-5.9,200.2-177.4c107.4,289.5-134.8,457.2-397.5,515.8 C2566.4,3064.1,2472.5,3044.9,2369,3004L2369,3004z" fill="#DE791B" fill-rule="evenodd"/></g><g><path d="M3003.8,2561c-5.3-16.6,3.9-34.4,20.6-39.6c16.6-5.3,34.4,3.9,39.6,20.6c20.4,64.1,16.9,122.4-2.9,166.2 c-12.2,27.1-30.8,49-53.9,63.6c-23.5,14.9-51.3,22.1-81.7,19.7c-43.8-3.4-92.9-26.9-141-76.6c-12.2-12.5-11.9-32.6,0.6-44.7 c12.5-12.2,32.6-11.9,44.7,0.6c36.4,37.7,71,55.3,100.3,57.6c16.4,1.3,31.2-2.4,43.3-10c12.5-7.9,22.7-20.3,29.9-36.1 C3017.2,2651.6,3019.2,2609.2,3003.8,2561L3003.8,2561z" fill="#572316"/></g><g><path clip-rule="evenodd" d="M1958.9,3194.2c647.6,0,1172.6,63,1172.6,140.7 c0,77.7-525,140.7-1172.6,140.7c-647.6,0-1172.6-63-1172.6-140.7C786.4,3257.3,1311.4,3194.2,1958.9,3194.2L1958.9,3194.2z" fill="#572316" fill-rule="evenodd"/></g><g><path d="M2679.1,2127c103,133.8,179.4,392.9,187.4,629.8c3.9,115.9-8.1,227.7-40.8,319.2 c-35.9,100.7-96.6,178.3-188.1,214.6c-48.2,19.1-103.4,26-166.2,17.8c-31,48.7-83.4,84.4-143,106.1c-43.9,16-92.6,24.7-138.7,25.4 c-48.3,0.7-95-7.6-132.4-25.6c-27.6-13.2-50.4-31.2-66.4-54.2c-32.9,4-65.7,6-98.6,6.1c-34.5,0.1-68.6-1.9-102.3-5.8 c-19.5,24.6-46.1,43.3-77.2,56.5c-37.5,15.9-82.2,23.6-128,23.7c-43.9,0.2-89.4-6.5-130.4-19.3c-72.3-22.5-134.1-65.1-159.5-124.9 c-0.9-2-1.6-4.1-2.2-6.1c-74.4-237-119.2-407.3-138.4-559.4c-19.4-154.4-12-286.7,18.2-446c6.6-35.2,40.5-58.4,75.7-51.8 c6,1.1,11.7,3.1,17,5.7c191,92.1,400.3,111,598.7,92.4c304.2-28.5,582.7-144.7,734.5-222.4 C2626.6,2094.5,2660.4,2102.8,2679.1,2127L2679.1,2127z M2737,2760.8c-6.4-188-58.4-388.4-131.2-511.1 c-168.1,80.4-437.3,183.2-730.2,210.6c-193.1,18.1-396.5,3.6-589.1-70.9c-16.1,112.2-17.9,212.9-3.7,325.9 c17.7,140.7,60.8,303.7,132.6,532.9c10.4,20.6,40.5,37.8,77.6,49.3c29.1,9.1,61.1,13.8,91.8,13.7c28.8-0.1,55.8-4.5,77.2-13.6 c16-6.8,27.5-15.8,31-27c9.5-30.5,40.3-50.1,72.6-44.7c42.5,7.2,84.8,10.9,126.7,10.8c41.8-0.1,84.2-4,127.1-12l3.3-0.5 c35.5-4.6,68,20.4,72.6,55.9c0.9,6.6,7.7,12.6,17.8,17.4c19,9.1,45.6,13.3,75,12.9c31.6-0.4,65.3-6.5,96-17.7 c42.2-15.4,76.7-39.5,84.9-69.5l0.8-3.9c8.7-34.8,44-55.9,78.7-47.2c58.1,14.6,104.7,12.7,141.2-1.8 c52.6-20.9,89.6-71.1,113.4-138C2730.5,2956.3,2740.4,2861,2737,2760.8L2737,2760.8z" fill="#572316"/></g><g><path clip-rule="evenodd" d="M2627.8,2166.6C2846.3,2450.4,2936,3361.4,2433,3235 c-35.2,156.7-383.5,192.7-401.9,53.5c-93,17.3-185,16.9-276.1,1.4c-40.9,131.2-348.9,102.4-400.4-18.8 c-146.9-468.1-176.4-668.4-118.3-974.2C1745.1,2542.9,2367.5,2299.8,2627.8,2166.6L2627.8,2166.6z" fill="#FEA726" fill-rule="evenodd"/></g><g><path clip-rule="evenodd" d="M2642.5,2124c-7.9,24.4-16.4,48-25.3,70.5 c162.9,245,277.8,963.7-30.4,1045.5c-39.8,10.5-81.5,9.1-121.8,1.7c-4.8-0.8-9.7-1.8-14.7-2.8c-5.7-1.2-11.5-2.4-17.3-3.9 c-34.3,157.1-383.2,193.5-401.9,53.5c-92.9,17.4-184.9,17.1-276.1,1.4c-40.9,131.2-348.9,102.4-400.4-18.8 c-12.3-39.1-23.7-78-34.3-116.7c162.3,97.5,383.9,69.8,367.5-130.6c126.2,112.4,277,87.8,377.5-19.4 c-32,166.4,50.7,204.8,137.7,211.6c102.6,8.1,236.7-57.4,286.1-194.1c234,51.3,134.1-448.9-23.5-602.8 c14.3-50.3,19.9-142.6-12-189.1C2515.7,2199.1,2578.7,2163.7,2642.5,2124L2642.5,2124z" fill="#DE791B" fill-rule="evenodd"/></g><g><path clip-rule="evenodd" d="M2000,3293.6c-70.9,10.2-141.3,10.3-211.1,1.4 c8.3-43.7-2.5-66.5-23.8-114.2c-66.6-149.4-125.3-258.1-149.3-443.3c-3.3-277.6-8.6-293.9-141.8-361.8 c277.4,64,572.4,36,888.3-102.7c-285.8,203.9-239.2,141.6-269.5,549.5C2084.9,3034.1,1994.3,3207.2,2000,3293.6L2000,3293.6z" fill="#FFF" fill-rule="evenodd"/></g><g><path d="M2411.3,2669.7c-5.3-16.7,4-34.5,20.7-39.8c16.7-5.3,34.5,4,39.8,20.7c28.1,88.8,43.5,197.8,46.9,305.3 c3.6,112.6-5.9,224-27.4,309.1c-4.2,17-21.4,27.3-38.4,23c-17-4.2-27.3-21.4-23-38.4c20.1-79.9,29-185,25.6-291.8 C2452.2,2856.1,2437.7,2753.2,2411.3,2669.7L2411.3,2669.7z" fill="#572316"/></g><g><path d="M2633.6,2194.5c-194.4,130.5-446.8,226.5-707.8,258.9c-72.6,9-145.9,13.1-219,11.8 c74.6,1.6,150-2.3,224.6-10.9c278.4-32,541.4-128.5,701.2-246.4C2633.1,2203.3,2633.4,2198.8,2633.6,2194.5L2633.6,2194.5z M1910.4,2327.5c274-34,536.5-142.7,720.8-287.3c3.2-2.8,6.7-5.3,10.5-7.5c30.4-17.2,69-6.6,86.2,23.8 c13.9,24.5,25.6,57.2,30.2,95l0.3,2.1c3.5,30.9,2.4,65.8-6.1,103.2l-0.1,0c-3.1,13.6-10.6,26.4-22.5,35.7 c-174.6,138-472.1,251.7-784.1,287.6c-266.2,30.6-545.2,5.3-771.6-108.6c-11.1-5.3-20.9-13.9-27.5-25.4 c-14.5-24.9-23.1-57.8-27.2-89.6c-4.9-38.4-3.3-78.5,2.6-100.2c1.3-4.6,3.1-9.2,5.4-13.6c16.6-30.8,54.9-42.3,85.7-25.8 C1422.2,2329.3,1670.1,2357.3,1910.4,2327.5L1910.4,2327.5z" fill="#572316"/></g><g><path clip-rule="evenodd" d="M2673,2087.7c-363.2,286.7-1016.2,439.4-1489.9,185 c-7.3,27.3-4.4,102.8,18.2,141.6c467.1,235.9,1182.2,71.3,1489.3-171.4C2705.6,2177.2,2692,2121.3,2673,2087.7L2673,2087.7z" fill="#27B7F5" fill-rule="evenodd"/></g><g><path clip-rule="evenodd" d="M1345.1,2342.6c-55.8-18.8-110.1-41.9-162.1-69.8 c-7.3,27.3-4.4,102.8,18.2,141.6c47.7,24.1,97.9,43.9,150.1,60C1340.3,2427.6,1337.1,2384.8,1345.1,2342.6L1345.1,2342.6z" fill="#7FD9FF" fill-rule="evenodd"/></g><g><path clip-rule="evenodd" d="M2644.6,2109.4c-57.1,42.1-114.3,93.7-182.7,128 c28.6,29.3,35,86,14,133.2c72.6-33.4,137.5-70.5,191.6-110.1C2670,2216,2665,2143.7,2644.6,2109.4L2644.6,2109.4z" fill="#1B91E0" fill-rule="evenodd"/></g><g><path d="M1889.2,2524.9c44.3,0,84.5,18,113.5,47c29,29,47,69.2,47,113.5c0,44.2-18,84.3-47,113.3v0.2 c-29,29-69.2,47-113.5,47c-44.2,0-84.3-18-113.3-47l-0.2-0.2c-29.1-29.1-47-69.2-47-113.3c0-44.3,18-84.5,47-113.5l3-2.8 C1807.5,2541.8,1846.4,2524.9,1889.2,2524.9L1889.2,2524.9z M1935.5,2639.2c-11.8-11.8-28.2-19.1-46.3-19.1 c-17.2,0-32.8,6.6-44.5,17.3l-1.8,1.9c-11.8,11.8-19.1,28.2-19.1,46.3c0,18.2,7.3,34.5,19.1,46.4c11.8,11.8,28.2,19.1,46.4,19.1 c18.1,0,34.4-7.3,46.3-19.1l0.1,0.1c11.8-11.8,19.1-28.2,19.1-46.4C1954.6,2667.4,1947.3,2651,1935.5,2639.2L1935.5,2639.2z" fill="#572316"/></g><g><path clip-rule="evenodd" d="M1889.2,2572.5c62.4,0,113,50.6,113,113s-50.6,113-113,113 c-62.4,0-113-50.6-113-113S1826.8,2572.5,1889.2,2572.5L1889.2,2572.5z" fill="#FC0" fill-rule="evenodd"/></g><g><path clip-rule="evenodd" d="M1908.9,2574.2c23.8,4.2,45,15.8,61.2,32.3l-159.8,159.8 c-16.6-16.2-28.1-37.4-32.3-61.2L1908.9,2574.2L1908.9,2574.2z" fill="#FFEA94" fill-rule="evenodd"/></g><g><path clip-rule="evenodd" d="M1984.5,2624.7c7.9,12.3,13.4,26.2,16,41.1l-130.9,130.9 c-14.9-2.6-28.8-8.2-41.1-16L1984.5,2624.7L1984.5,2624.7z" fill="#FFEA94" fill-rule="evenodd"/></g><g><path d="M1185,3433.3c-6.4,0.6-12.9,1-19.7,1.1c-85.7,1.4-162.6-41-219.8-108.9c-53.6-63.6-90-150.4-98.8-243 c-1.1-11.9-1.8-24.2-2.1-36.7c-0.8-46.5,12.7-91.2,34.8-125.3c13.1-20.2,29.2-37.1,47.3-49.1c1.8-1.2,3.6-2.2,5.4-3.2 c19.4-11.8,41.1-18.5,64-18.9c3.7-0.1,7.4,0,11,0.3c6.1-6.7,13-12.7,20.5-18.3c20.9-15.3,47.6-26.1,75.2-31.2l2.5-0.4 c26.8-4.6,55.2-4,80.6,2.9c11.9,3.2,23.3,7.8,33.9,13.7c6.5-4,13.1-7.5,19.8-10.3c30.7-12.9,62.4-13.5,92.2-3.7 c26.9,8.9,51.9,26.5,72.5,51.2c24.8,29.8,43.2,70.6,49.8,118.7c0.8,6.2,1.7,13.3,2.4,21.2c7.8,81.7-1.6,180.3-37.9,262.3 c-39.6,89.7-109.7,160.7-221.2,176.1C1194.4,3432.3,1190.2,3432.8,1185,3433.3L1185,3433.3z M1163.4,3317.5 c3.2-0.1,6.8-0.3,10.5-0.6l7.6-0.9c64-8.8,105.4-52.2,129.8-107.3c27.8-62.9,34.9-139.7,28.7-204.1c-0.5-4.9-1.1-10.5-2-16.6 c-3.5-25.5-12.2-45.8-23.6-59.6c-6.2-7.4-12.8-12.4-19.3-14.6c-3.6-1.2-7.1-1.2-10.1,0c-5.5,2.3-11.7,7.8-18,16.9 c-5.9,8.6-14.2,15.7-24.4,20.3c-29.5,13.2-64.1-0.1-77.2-29.6c-1-2.2-4.9-4.1-10.2-5.6c-9-2.4-19.5-2.6-29.8-1l-1.5,0.3 c-10.8,2-20.4,5.6-27.1,10.5c-0.3,0.2-0.6-0.3-0.8-1.1l-0.8-1.1c-0.6,9.8-3.6,19.5-9.3,28.3c-17.6,27.1-53.8,34.8-80.9,17.2 c-3.1-2-5.4-2.9-7.1-2.9c-1.1,0-2.4,0.5-3.9,1.2l-2.3,1.6c-5.2,3.5-10.1,8.7-14.3,15.2c-10.2,15.7-16.4,37-16,59.7 c0.1,9,0.7,18.2,1.6,27.5c6.6,69,33,132.8,71.8,178.8C1070.1,3292.1,1115.2,3318.3,1163.4,3317.5L1163.4,3317.5z M1095.4,2922.3 l-0.1,1.2l0.8,1.1C1095.7,2922.9,1095.5,2920,1095.4,2922.3L1095.4,2922.3z" fill="#572316"/></g><g><path clip-rule="evenodd" d="M1179.4,3375.1c-149.6,14.4-273.3-149.3-276.4-330.2 c-1.5-89.7,67-168.3,133.9-124.9c2.6-64.9,149.4-95.2,182-22.4c60.8-87.7,161.3-33.5,177.2,82.5 C1416.6,3129.4,1371.2,3356.7,1179.4,3375.1L1179.4,3375.1z" fill="#FFF" fill-rule="evenodd"/></g><g><path clip-rule="evenodd" d="M1179.4,3375.1c-149.6,14.4-273.3-149.3-276.4-330.2 c-1.2-72.3,43-137.3,95.2-137.2c-30.8,312.8,128.2,413.4,283.8,430.4C1253.9,3358,1220,3371.2,1179.4,3375.1L1179.4,3375.1z" fill="#C3D3F0" fill-rule="evenodd"/></g><g><path clip-rule="evenodd" d="M1155.9,3102.1c61.5,0,113.2,50.4,115.5,112.5 c2.3,62.1-45.6,112.5-107,112.5c-61.5,0-113.2-50.4-115.5-112.5C1046.5,3152.5,1094.4,3102.1,1155.9,3102.1L1155.9,3102.1z" fill="#692C0E" fill-rule="evenodd"/></g><g><path clip-rule="evenodd" d="M988.7,2961.5c31.3-6.1,61.9,19.2,68.3,56.5 c6.4,37.3-13.9,72.5-45.2,78.7c-31.3,6.1-61.9-19.2-68.3-56.5C937.1,3002.9,957.4,2967.7,988.7,2961.5L988.7,2961.5z" fill="#692C0E" fill-rule="evenodd"/></g><g><path clip-rule="evenodd" d="M1129.4,2921.7c31.4-6.1,62,19.2,68.3,56.5 c6.4,37.3-13.9,72.6-45.2,78.7c-31.3,6.1-61.9-19.2-68.3-56.5C1077.8,2963,1098,2927.8,1129.4,2921.7L1129.4,2921.7z" fill="#692C0E" fill-rule="evenodd"/></g><g><path clip-rule="evenodd" d="M1283.9,2912.8c31.4-6.1,62,19.2,68.3,56.5 c6.4,37.3-13.9,72.6-45.2,78.7c-31.3,6.1-61.9-19.2-68.3-56.5C1232.3,2954.1,1252.6,2918.9,1283.9,2912.8L1283.9,2912.8z" fill="#692C0E" fill-rule="evenodd"/></g><g><path d="M2682.6,3316.9c3.7,0.4,7.2,0.6,10.5,0.6c48.2,0.8,93.4-25.4,128.6-67.2c38.8-46,65.2-109.9,71.8-178.8 c0.9-9.3,1.4-18.5,1.6-27.5c0.4-22.7-5.8-44-16-59.7c-4.2-6.5-9.1-11.8-14.3-15.2l-2.3-1.6c-1.5-0.8-2.8-1.2-3.9-1.2 c-1.6,0-4,0.9-7.1,2.9c-27.1,17.6-63.3,9.9-80.9-17.2c-5.7-8.8-8.7-18.5-9.3-28.3l-0.8,1.1c-0.2,0.8-0.5,1.3-0.8,1.1 c-6.7-4.9-16.3-8.6-27.1-10.5l-1.6-0.3c-10.3-1.7-20.7-1.5-29.7,1c-5.2,1.4-9.2,3.3-10.2,5.6c-13.2,29.5-47.7,42.7-77.2,29.6 c-10.2-4.6-18.5-11.7-24.4-20.3c-6.3-9.1-12.4-14.6-18-16.9c-3-1.3-6.6-1.2-10.1,0c-6.5,2.1-13.1,7.2-19.3,14.6 c-11.4,13.8-20.1,34.1-23.6,59.6c-0.8,6.1-1.5,11.6-2,16.6c-6.2,64.4,1,141.3,28.7,204.1c24.4,55.1,65.8,98.6,129.8,107.3 L2682.6,3316.9L2682.6,3316.9z M2691.3,3434.4c-6.7-0.1-13.3-0.5-19.7-1.1l-12.4-1.4c-111.6-15.4-181.6-86.4-221.2-176.1 c-36.3-82.1-45.7-180.6-37.9-262.3c0.8-7.9,1.6-15,2.4-21.2c6.6-48.1,25-88.9,49.8-118.7c20.5-24.7,45.5-42.4,72.5-51.2 c29.8-9.8,61.5-9.2,92.2,3.7c6.7,2.8,13.4,6.3,19.8,10.3c10.5-5.9,21.9-10.5,33.9-13.7c25.5-6.9,53.8-7.5,80.6-2.9l2.5,0.4 c27.6,5,54.3,15.9,75.2,31.2c7.6,5.5,14.4,11.6,20.5,18.3c3.7-0.3,7.4-0.4,11-0.3c23,0.4,44.6,7.1,64,18.9c1.8,1,3.7,2,5.4,3.2 c18.1,12.1,34.2,29,47.3,49.1c22.1,34.1,35.6,78.8,34.8,125.3c-0.2,12.5-0.9,24.8-2.1,36.7c-8.9,92.6-45.2,179.4-98.8,243 C2853.9,3393.4,2777,3435.8,2691.3,3434.4L2691.3,3434.4z M2761.3,2923.5l-0.1-1.2c-0.1-2.3-0.3,0.6-0.8,2.4L2761.3,2923.5 L2761.3,2923.5z" fill="#572316"/></g><g><path clip-rule="evenodd" d="M2677.1,3375.1c149.6,14.4,273.3-149.3,276.4-330.2 c1.5-89.7-67-168.3-133.9-124.9c-2.6-64.9-149.4-95.2-182-22.4c-60.8-87.7-161.3-33.5-177.2,82.5 C2440,3129.4,2485.3,3356.7,2677.1,3375.1L2677.1,3375.1z" fill="#FFF" fill-rule="evenodd"/></g><g><path clip-rule="evenodd" d="M2677.1,3375.1c149.6,14.4,273.3-149.3,276.4-330.2 c1.2-72.3-43-137.3-95.2-137.2c30.8,312.8-128.2,413.4-283.8,430.4C2602.6,3358,2636.6,3371.2,2677.1,3375.1L2677.1,3375.1z" fill="#C3D3F0" fill-rule="evenodd"/></g><g><path clip-rule="evenodd" d="M2700.7,3102.1c-61.5,0-113.2,50.4-115.5,112.5 c-2.3,62.1,45.6,112.5,107,112.5c61.5,0,113.2-50.4,115.5-112.5C2810.1,3152.5,2762.1,3102.1,2700.7,3102.1L2700.7,3102.1z" fill="#572316" fill-rule="evenodd"/></g><g><path clip-rule="evenodd" d="M2867.8,2961.5c-31.3-6.1-61.9,19.2-68.3,56.5 c-6.4,37.3,13.9,72.5,45.2,78.7c31.3,6.1,61.9-19.2,68.3-56.5C2919.4,3002.9,2899.2,2967.7,2867.8,2961.5L2867.8,2961.5z" fill="#692C0E" fill-rule="evenodd"/></g><g><path clip-rule="evenodd" d="M2727.2,2921.7c-31.4-6.1-62,19.2-68.3,56.5 c-6.4,37.3,13.9,72.6,45.2,78.7c31.3,6.1,61.9-19.2,68.3-56.5C2778.8,2963,2758.5,2927.8,2727.2,2921.7L2727.2,2921.7z" fill="#692C0E" fill-rule="evenodd"/></g><g><path clip-rule="evenodd" d="M2572.6,2912.8c-31.4-6.1-62,19.2-68.3,56.5 c-6.4,37.3,13.9,72.6,45.2,78.7c31.3,6.1,61.9-19.2,68.3-56.5C2624.2,2954.1,2604,2918.9,2572.6,2912.8L2572.6,2912.8z" fill="#692C0E" fill-rule="evenodd"/></g><g><path clip-rule="evenodd" d="M2000,3293.6c-70.9,10.2-141.3,10.3-211.1,1.4 c8.3-43.7-2.5-66.5-23.8-114.2c-23.4-52.4-45.8-99.8-66-147.3c123.8,101.2,268.7,75,366.2-29c-1.9,9.7-3.3,18.9-4.4,27.8 C2032.5,3146.6,1996.4,3238,2000,3293.6L2000,3293.6z" fill="#C3D3F0" fill-rule="evenodd"/></g><g><path d="M2061.3,2819c1.9-17.4,17.6-29.9,34.9-28c17.4,1.9,29.9,17.6,28,34.9c-22.9,201.9-52,288.1-72,347.2 c-14.5,43-23.7,70.1-20.4,122.4c1.1,17.4-12.2,32.5-29.6,33.6c-17.4,1.1-32.5-12.2-33.6-29.6c-4.1-64.5,6.6-96.2,23.6-146.5 C2011.4,3096.6,2039.2,3014.3,2061.3,2819L2061.3,2819z" fill="#572316"/></g><g><path d="M1584.6,2742.7c-2.9-17.2,8.8-33.6,26-36.4c17.2-2.9,33.6,8.8,36.4,26c44.4,263.1,103.6,362.5,139.6,423 h0.1c31.9,53.6,48.7,81.8,30.6,147.8c-4.6,16.8-21.9,26.8-38.8,22.2c-16.8-4.6-26.8-21.9-22.2-38.8c10.9-40-1.2-60.3-24.2-99 l0.1-0.1C1694,3122.9,1630.9,3016.9,1584.6,2742.7L1584.6,2742.7z" fill="#572316"/></g><g><path d="M2542.1,1045.3c86.4,98,163.8,237.8,215.3,384.1c52.8,149.9,79.3,308.8,62,440.1 c-21.8,164.8-160.2,298.3-354.3,392.6c-167.1,81.1-378,134.5-589.1,153.5c-211.4,19-424.3,3.4-594.9-53.4 c-179.2-59.7-313.8-164.6-359-322.7c-36.5-127.7-43.6-283.8-24.7-435.6c17.3-139,56.6-275.7,115.2-385.3 c-22.7-65.2-39.7-153.1-44-242.7c-4.2-88.9,4.1-181.2,31.7-257.7c10.6-29.5,40.4-46.6,70.3-42.2l0-0.2 c59.1,8.8,129.5,31.5,199.2,60.4c66,27.3,132.2,60.6,187.4,92.9c73.1-30.6,174.8-53.3,276.5-64.9c101.5-11.6,205.6-12.4,283.8,0.8 c45.8-43.6,102.2-90.8,160.1-132.4c61.3-44,124.5-82.1,179.6-103.9c31.2-12.3,66.2,1.2,81.4,30.2c43.3,67.7,72.3,153.7,88.9,239.1 C2544.7,886.7,2548.9,976.6,2542.1,1045.3L2542.1,1045.3z M2635,1472.6c-49.6-140.8-124.3-273.2-205.9-358.6l-0.9-1.1 c-1.5-1.5-2.9-3.2-4.3-4.9l-1.2-1.5c-10.9-13.9-16.2-32.2-13-51.1c9.8-57.5,7.4-144.8-9.7-232.9c-10.2-52.3-25.3-104-45.9-148.6 c-32.4,17.5-66.7,39.6-100.7,64c-63,45.3-124.1,97.8-168.9,143.3c-15.7,15.9-39.3,23.3-62.5,17.3c-64.5-16.9-168.9-17-273.5-5.1 c-104.6,11.9-206.1,35.7-264.8,66.6l-0.1-0.2c-19.7,10.3-44.2,10.2-64.4-2.4c-54-33.8-126-71.2-198.6-101.2 c-38.9-16.1-77.6-29.9-113.1-39.7c-9.3,47.6-11.8,100.8-9.3,153.4c4.2,88.2,22.1,172.6,44.8,226.8c8.6,18.7,8.3,41.2-3,60.3 c-57.9,97.9-96.8,228.4-113.5,362.8c-16.9,135.6-11.1,273.5,20.6,384.3c32.1,111.9,135.4,188.9,274.7,235.3 c153.4,51.1,347.9,64.8,543.1,47.3c195.5-17.6,390.3-66.7,543.9-141.3c156.4-75.9,266.9-176.3,282.2-292.5 C2705.4,1742.7,2681.6,1605,2635,1472.6L2635,1472.6z" fill="#572316"/></g><g><path clip-rule="evenodd" d="M2476.1,1069.3c171,179.1,311.8,543.9,279,791.8 c-69.3,523.8-1610.3,720.4-1770.6,160.6c-68-237.7-26-585.5,99.5-797.8c-47.5-111-76.4-335.2-22.8-483.8 c116.2,17.4,285.9,95.8,392.2,162.4c132-69.5,439.9-104.8,584.8-66.8c87.6-88.7,234-203.3,342.9-246.4 c87.7,132.9,112.8,358.7,92.6,477C2474.6,1067.3,2475.3,1068.3,2476.1,1069.3L2476.1,1069.3z" fill="#FEA726" fill-rule="evenodd"/></g><g><path clip-rule="evenodd" d="M1388,2324.9c-201.9-47-358-144.8-403.4-303.2 c-68-237.7-26-585.5,99.6-797.8c-47.5-111-76.4-335.2-22.8-483.8c-10.8,209.6,19.9,378.8,92.6,485.5 c-153.4,205.1-216.3,570.8-91.4,830.6C1122.6,2181.2,1260.1,2253.7,1388,2324.9L1388,2324.9z" fill="#FFD28F" fill-rule="evenodd"/></g><g><path clip-rule="evenodd" d="M2380.6,705.3c55.6,126.7,45.6,272.8,28.3,374.4 c279.4,338.3,359.1,670.5,259.2,881c-63.5,133.8-173.6,192.8-297.2,238.3c-115.4,42.4-391.5,115.6-107.5-34.4 c166.2-87.8,249.8-192.3,259.6-346.4c14.9-232.8-132.8-567.3-268.2-758.9c-11.5-17.2-8.6-11.7-1.4-31.2 c34.7-93,64.9-135.9,66.5-275.6C2320.7,684,2345.2,624.7,2380.6,705.3L2380.6,705.3z" fill="#DE791B" fill-rule="evenodd"/></g><g><path clip-rule="evenodd" d="M2758.3,1830c-0.8,10.6-1.8,21-3.1,31.2 c-69.3,523.9-1596.7,713.8-1767,172.1c116-42.4,229.8-40.7,336.6-0.8c71.4,26.7,50.7,7.9,96.4-59.6 c158.4-234,695.7-295.4,905.4-103.5c60.5,55.4,44.8,78.3,107.9,36.2C2528.7,1842.8,2635.9,1815,2758.3,1830L2758.3,1830z" fill="#FFF" fill-rule="evenodd"/></g><g><path clip-rule="evenodd" d="M2518.2,1860.6c58-24,120.3-36,187.5-34.5 c-5.8,48.8-18.3,94-37.6,134.6c-63.5,133.8-173.6,192.8-297.2,238.3c-115.4,42.4-391.5,115.6-107.5-34.4 C2413.9,2085.1,2496.6,1991.9,2518.2,1860.6L2518.2,1860.6z" fill="#C3D3F0" fill-rule="evenodd"/></g><g><path clip-rule="evenodd" d="M2173.7,851.7c50.1-39.9,88.6-64.7,140-93.5 c26.3-14.7,27.7-12.1,34.4,16.4c15.9,66.9,17.3,114.1,16,180.5c-0.8,39.3,4.1,51.3-27.3,29.8c-55.9-38.2-114-67.6-173.5-90.9 C2128.6,880.4,2142.1,877,2173.7,851.7L2173.7,851.7z" fill="#572316" fill-rule="evenodd"/></g><g><path clip-rule="evenodd" d="M1320.7,949.2c-58.2-27.5-101.5-43-158.4-59.4 c-29.1-8.4-29.8-5.6-29.6,23.7c0.5,68.7,10.2,114.9,27.3,179.2c10.1,38.1,8.2,50.8,33.6,22.9c45.3-49.8,94.8-91.4,147.2-127.5 C1371.5,966.9,1357.6,966.6,1320.7,949.2L1320.7,949.2z" fill="#572316" fill-rule="evenodd"/></g><g><path clip-rule="evenodd" d="M1701.1,1813.7c34.6,48.4,91.3,67.7,161.7,83.1 c65-31.2,115.6-63.2,138.1-118.2C2047.6,1663.9,1629,1713,1701.1,1813.7L1701.1,1813.7z" fill="#572316" fill-rule="evenodd"/></g><g><path clip-rule="evenodd" d="M2070.5,2042.4c-66.1-21.9-132.3-43.7-198.4-65.6 c-59.3,36.6-118.5,73.2-177.8,109.7c9.7,83,86.8,142.4,205.8,128.5S2080.3,2125.4,2070.5,2042.4L2070.5,2042.4z" fill="#572316" fill-rule="evenodd"/></g><g><path clip-rule="evenodd" d="M1764.9,2141.7c31.7,27.3,76.4,41.5,130.7,35.1 c54.3-6.4,94.5-30.5,119-64.4c-31.7-27.3-76.4-41.5-130.7-35.1C1829.6,2083.7,1789.5,2107.8,1764.9,2141.7L1764.9,2141.7z" fill="#FF6B81" fill-rule="evenodd"/></g><g><path d="M2074.6,1900.6c46.9,65.6,15.1,116.6-62.2,111.6c-45.1-2.9-93.2-24.7-114.1-58.9l-13.4-114.5l-57,6.7 l14.1,120l0.6,5.1l2.5,4.6c28.8,54.3,99.1,88.8,163.6,93c119.7,7.6,186-104.7,112.4-192.9c-14.9-17.9-33.3-17.9-42.5-6.5 C2074.4,1873.6,2067.7,1883.3,2074.6,1900.6L2074.6,1900.6z" fill="#572316"/></g><g><path clip-rule="evenodd" d="M2135.6,1106.4c72.4,9,93.8,63.8,25.3,78.2 c-40.8,8.6-79.1,24.1-117.1,50.6c-44.5,31.1-81.5-4.4-81.6-43.5C1962.1,1121.5,2085.9,1100.2,2135.6,1106.4L2135.6,1106.4z" fill="#FFF" fill-rule="evenodd"/></g><g><path clip-rule="evenodd" d="M1403.7,1192.3c-68.4,25.5-76.5,83.7-6.5,82 c41.7-1.1,82.6,5.1,125.6,22.1c50.5,19.9,78.3-23.2,69.3-61.2C1575.9,1166.8,1450.6,1174.8,1403.7,1192.3L1403.7,1192.3z" fill="#FFF" fill-rule="evenodd"/></g><g><path d="M1656.1,1949.7c-30.4,74.7,12.3,116.9,86.3,94.2c43.2-13.2,84.9-45.6,97.4-83.7l-13.4-114.5l57-6.7 l14.1,120l0.6,5.1l-1.3,5.1c-15.5,59.5-75.8,109.3-137.6,128.3c-114.6,35.1-205.1-58.8-154-161.7c10.4-20.8,28.2-25.1,39.8-16.2 C1650,1923.4,1658.8,1931.3,1656.1,1949.7L1656.1,1949.7z" fill="#572316"/></g><g><path clip-rule="evenodd" d="M1484.5,1449c71.2-8.4,135.8,56.3,144.1,144.4 c8.3,88.1-42.6,166.3-113.9,174.7c-71.2,8.4-135.8-56.3-144.1-144.4C1362.3,1535.5,1413.3,1457.4,1484.5,1449L1484.5,1449z" fill="#572316" fill-rule="evenodd"/></g><g><path clip-rule="evenodd" d="M1531.3,1509.5c25.5-3,48.6,20.1,51.6,51.7 c3,31.5-15.3,59.5-40.8,62.5c-25.5,3-48.6-20.1-51.6-51.7C1487.6,1540.5,1505.8,1512.5,1531.3,1509.5L1531.3,1509.5z" fill="#FFF" fill-rule="evenodd"/></g><g><path clip-rule="evenodd" d="M2151.7,1370.7c-71.2,8.4-119.1,86.2-106.8,173.8 c12.3,87.6,80,151.9,151.2,143.5c71.2-8.4,119.1-86.2,106.8-173.8C2290.6,1426.6,2222.9,1362.4,2151.7,1370.7L2151.7,1370.7z" fill="#572316" fill-rule="evenodd"/></g><g><path clip-rule="evenodd" d="M2120.2,1440.4c-25.5,3-42.6,30.8-38.2,62.2 c4.4,31.4,28.6,54.4,54.1,51.4c25.5-3,42.6-30.8,38.2-62.2C2169.9,1460.4,2145.7,1437.4,2120.2,1440.4L2120.2,1440.4z" fill="#FFF" fill-rule="evenodd"/></g></g></g></svg>