<?xml version="1.0" encoding="UTF-8"?><svg xmlns="http://www.w3.org/2000/svg" xmlns:xlink="http://www.w3.org/1999/xlink" height="213.5" preserveAspectRatio="xMidYMid meet" version="1.0" viewBox="-2.0 -3.4 450.7 213.5" width="450.7" zoomAndPan="magnify"><g><g id="change1_6"><path d="m-406.34 139.97c-7.2507-16.571-15.703-23.536-25.16-26.765-14.6-2.2606-25.325 0.97387-32.215 10.515-16.2 33.261 23.359 42.664 32.156 56.625 11.623 21.668-4.5276 26.218-12.452 30.159-4.0626 3.5226-1.9664 7.66 2.9821 6.9748 15.684-1.1835 27.164-10.162 24.47-22.29-4.8919-10.427-6.0146-23.916-0.54909-27.119 9.4861-4.4436 19.042 17.755 16.268 23.994h25.656c-2.7738-6.2391 5.352-30.842 14.838-26.399 5.4655 3.2032 5.4475 18.772 0.88062 29.524-2.3124 14.157 16.115 23.563 27.062 20.969 2.9922-0.95151 5.4542-5.2926-0.56407-7.9639-11.324-0.82387-23.415-9.1693-10.817-28.498 8.2196-16.762 49.109-16.994 31.506-55.975-6.8895-9.5407-17.247-13.969-31.848-11.708-9.4509 3.2266-18.284 11.383-25.527 27.927 8.7339-28.397-11.543-29.943-18.344-47.719-6.298 17.656-27.1 19.329-18.344 47.75zm36.688 0c-1.1351 3.6842-2.7744 7.7271-4.9688 12.219 1.7666-4.6074 3.4069-8.6499 4.9688-12.219zm-36.562 0.34375c1.5188 3.4886 3.0998 7.4081 4.8125 11.875-2.127-4.3538-3.6834-8.2816-4.8125-11.875z" fill="#ffc600" fill-rule="evenodd" stroke="#000" stroke-width="3.543" transform="translate(621.16 -92.507) scale(1.0228)"/></g><g id="change1_7"><path d="m-249.88 293.49 27.341-59.308-19.821-7.2077c-16.431 32.176-65.481 22.666-65.462-10.17 10.537-4.236 7.3988-20.054-4.4268-20.36-12.883-0.58919-16.17 14.526-7.3886 20.002-15.528 23.085-51.937 18.338-60.57-6.5905h-15.848c-8.6335 24.929-45.043 29.675-60.57 6.5905 8.7812-5.4764 5.4945-20.591-7.3886-20.002-11.826 0.30617-14.963 16.124-4.4268 20.36 0.0193 32.835-49.031 42.345-65.462 10.17l-19.821 7.2077 27.341 58.485c87.673-22.736 184.44-20.31 276.5 0.82293z" fill="#ffc600" fill-rule="evenodd" stroke="#000" stroke-width="4.606" transform="translate(621.16 -92.507) scale(1.0228)"/></g><g><g id="change2_1"><path d="m281.84 349.55 0.10794 11.942h-12.05l11.942-11.942z" fill="#f2cb10" fill-rule="evenodd" transform="matrix(1.5788 .09015 -.09015 1.5788 -145.807 -427.699)"/></g><g id="change3_1"><path d="m293.94 361.74-12.157-0.0283 0.0823-11.996 12.075 12.024z" fill="#e7b402" fill-rule="evenodd" transform="matrix(1.5788 .09015 -.09015 1.5788 -145.807 -427.699)"/></g><g id="change4_1"><path d="m282.42 374-0.47409-12.5h-12.05l12.524 12.5z" fill="#c18102" fill-rule="evenodd" transform="matrix(1.5788 .09015 -.09015 1.5788 -145.807 -427.699)"/></g><g id="change5_1"><path d="m293.94 361.63-12.049-0.0796 0.27432 12.594 11.775-12.515z" fill="#8b3c02" fill-rule="evenodd" transform="matrix(1.5788 .09015 -.09015 1.5788 -145.807 -427.699)"/></g><path d="m445.96 50.818h17.834v17.038h-17.834z" fill="none" stroke="#230000" stroke-linecap="round" stroke-linejoin="round" stroke-width="1.617" transform="scale(1.58137) rotate(47.853 258.683 -239.135)"/></g><g id="change6_1"><path d="m426.18 78.491h4.4863v4.2859h-4.4863z" fill="#481802" transform="matrix(1.0617 1.172 -1.173 1.0605 -93.573 -419.015)"/></g><g><g id="change2_3"><path d="m281.84 349.55 0.10794 11.942h-12.05l11.942-11.942z" fill="#f2cb10" fill-rule="evenodd" transform="scale(1.5813) rotate(.788 18738.574 -11990.404)"/></g><g id="change3_3"><path d="m293.94 361.74-12.157-0.0283 0.0823-11.996 12.075 12.024z" fill="#e7b402" fill-rule="evenodd" transform="scale(1.5813) rotate(.788 18738.574 -11990.404)"/></g><g id="change4_3"><path d="m282.42 374-0.47409-12.5h-12.05l12.524 12.5z" fill="#c18102" fill-rule="evenodd" transform="scale(1.5813) rotate(.788 18738.574 -11990.404)"/></g><g id="change5_3"><path d="m293.94 361.63-12.049-0.0796 0.27432 12.594 11.775-12.515z" fill="#8b3c02" fill-rule="evenodd" transform="scale(1.5813) rotate(.788 18738.574 -11990.404)"/></g><path d="m445.96 50.818h17.834v17.038h-17.834z" fill="none" stroke="#230000" stroke-linecap="round" stroke-linejoin="round" stroke-width="1.617" transform="scale(1.5813) rotate(45.373 228.005 -324.5)"/></g><g id="change6_2"><path d="m426.18 78.491h4.4863v4.2859h-4.4863z" fill="#481802" transform="matrix(1.1114 1.1249 -1.1259 1.1104 -205.365 -402.845)"/></g><g><g id="change2_2"><path d="m281.84 349.55 0.10794 11.942h-12.05l11.942-11.942z" fill="#f2cb10" fill-rule="evenodd" transform="matrix(1.44716 -.1412 .1412 1.44716 -366.722 -300.77)"/></g><g id="change3_2"><path d="m293.94 361.74-12.157-0.0283 0.0823-11.996 12.075 12.024z" fill="#e7b402" fill-rule="evenodd" transform="matrix(1.44716 -.1412 .1412 1.44716 -366.722 -300.77)"/></g><g id="change4_2"><path d="m282.42 374-0.47409-12.5h-12.05l12.524 12.5z" fill="#c18102" fill-rule="evenodd" transform="matrix(1.44716 -.1412 .1412 1.44716 -366.722 -300.77)"/></g><g id="change5_2"><path d="m293.94 361.63-12.049-0.0796 0.27432 12.594 11.775-12.515z" fill="#8b3c02" fill-rule="evenodd" transform="matrix(1.44716 -.1412 .1412 1.44716 -366.722 -300.77)"/></g><path d="m445.96 50.818h17.834v17.038h-17.834z" fill="none" stroke="#2a0000" stroke-linecap="round" stroke-linejoin="round" stroke-width="1.617" transform="matrix(1.1298 .91529 -.91529 1.1298 -366.722 -300.77)"/></g><g id="change6_3"><path d="m426.18 78.491h4.4863v4.2859h-4.4863z" fill="#481802" transform="matrix(1.1302 .91476 -.9158 1.12938 -318.036 -300.258)"/></g><g><g id="change2_4"><path d="m281.84 349.55 0.10794 11.942h-12.05l11.942-11.942z" fill="#f2cb10" fill-rule="evenodd" transform="rotate(12.892 1901.959 114.825) scale(1.45405)"/></g><g id="change3_4"><path d="m293.94 361.74-12.157-0.0283 0.0823-11.996 12.075 12.024z" fill="#e7b402" fill-rule="evenodd" transform="rotate(12.892 1901.959 114.825) scale(1.45405)"/></g><g id="change4_4"><path d="m282.42 374-0.47409-12.5h-12.05l12.524 12.5z" fill="#c18102" fill-rule="evenodd" transform="rotate(12.892 1901.959 114.825) scale(1.45405)"/></g><g id="change5_4"><path d="m293.94 361.63-12.049-0.0796 0.27432 12.594 11.775-12.515z" fill="#8b3c02" fill-rule="evenodd" transform="rotate(12.892 1901.959 114.825) scale(1.45405)"/></g><path d="m445.96 50.818h17.834v17.038h-17.834z" fill="none" stroke="#230000" stroke-linecap="round" stroke-linejoin="round" stroke-width="1.617" transform="rotate(57.477 421.067 -143.65) scale(1.45405)"/></g><g id="change6_4"><path d="m426.18 78.491h4.4863v4.2859h-4.4863z" fill="#481802" transform="matrix(.7823 1.22562 -1.22634 .78115 119.579 -405.555)"/></g><g id="change1_8"><path d="m-363.2 198.67c0 6.8734-10.689 12.445-23.875 12.445s-23.875-5.572-23.875-12.445 10.689-12.445 23.875-12.445 23.875 5.572 23.875 12.445z" fill="#ffc600" stroke="#000" stroke-linecap="round" stroke-width="4.606" transform="matrix(.91343 0 0 .86395 577.006 -60.168)"/></g><g id="change1_9"><path d="m-363.2 198.67c0 6.8734-10.689 12.445-23.875 12.445s-23.875-5.572-23.875-12.445 10.689-12.445 23.875-12.445 23.875 5.572 23.875 12.445z" fill="#ffc600" stroke="#000" stroke-linecap="round" stroke-width="4.606" transform="matrix(-.76462 .27904 .29618 .8116 -294.512 80.581)"/></g><g stroke="#000" stroke-width="3.834"><g id="change1_1"><path d="m-561.17 219.28c-18.873-24.13-31.285-53.887-44.249-82.74 19.278 9.0105 49.926-0.39776 55.138 57.344-9.7393-35.679 2.3343-64.979 27.569-65.063 26.549 1.1437 32.258 24.204 22.055 56.241-1.1106 8.5004-8.905 35.759 16.541 33.083-9.8638 6.5344-31.926 14.053-40.802-9.9249-1.147-10.134 2.3341-31.271-7.7194-30.877-8.0739-0.14131-17.663 15.513-11.371 34.047l-17.162 7.8908z" fill="#ffc600" fill-rule="evenodd" transform="matrix(-1.0228 0 0 1.0228 -174.445 -92.507)"/></g><path d="m-550.69 191.35c-2.1229-20.482 15.422-43.493 29.001-40.919 8.4853 0.74941 13.996 9.9642 9.4919 41.23-1.8 27.505 9.0689 28.927 21.109 27.938" fill="none" transform="matrix(-1.0228 0 0 1.0228 -174.445 -92.507)"/></g><g id="change1_10"><path d="m-363.2 198.67c0 6.8734-10.689 12.445-23.875 12.445s-23.875-5.572-23.875-12.445 10.689-12.445 23.875-12.445 23.875 5.572 23.875 12.445z" fill="#ffc600" stroke="#000" stroke-linecap="round" stroke-width="4.606" transform="matrix(-.76496 -.27813 -.29521 .81195 150.069 -134.196)"/></g><g id="change1_11"><path d="m-1076.1-251.09c0 73.392-63.124 132.89-140.99 132.89s-140.99-59.496-140.99-132.89 63.124-132.89 140.99-132.89c76.145 0 138.53 56.986 140.92 128.72" fill="#ffc600" stroke="#000" stroke-linecap="round" stroke-width="26.727" transform="matrix(.08135 0 0 .08438 246.365 140.558)"/></g><g id="change1_12"><path d="m-1076.1-251.09c0 73.392-63.124 132.89-140.99 132.89s-140.99-59.496-140.99-132.89 63.124-132.89 140.99-132.89c76.145 0 138.53 56.986 140.92 128.72" fill="#ffc600" stroke="#000" stroke-linecap="round" stroke-width="26.727" transform="matrix(.08135 0 0 .08438 401.391 140.558)"/></g><path d="m-348.34 188.89c1.8492-10.818 11.079-24.669 16.731-32.897 4.6142-11.919 3.3198-19.244-7.4918-21.753-13.52-0.97399-35.945 21.391-40.614 54.421-0.76412-12.494-0.46129-23.486 5.409-37.678" fill="none" stroke="#000" stroke-width="3.479" transform="translate(621.16 -92.507) scale(1.0228)"/><path d="m-429.42 185.38c-1.8492-10.818-10.105-19.406-15.172-29.388-4.6142-11.919-3.3198-19.244 7.4918-21.753 13.52-0.97399 35.945 21.391 40.614 54.421 0.76412-12.494 0.46129-23.486-5.409-37.678" fill="none" stroke="#000" stroke-width="3.479" transform="translate(621.16 -92.507) scale(1.0228)"/><g id="change1_13"><path d="m-561.17 219.28c-18.873-24.13-31.285-53.887-44.249-82.74 19.278 9.0105 49.926-0.39776 55.138 57.344-9.7393-35.679 2.3343-64.979 27.569-65.063 26.549 1.1437 32.258 24.204 22.055 56.241-1.1106 8.5004-8.905 35.759 16.541 33.083-9.8638 6.5344-31.926 14.053-40.802-9.9249-1.147-10.943 2.3341-31.271-7.7194-30.877-8.0739-0.14131-17.663 15.513-11.371 34.047l-17.162 7.8908z" fill="#ffc600" fill-rule="evenodd" stroke="#000" stroke-width="3.834" transform="translate(621.16 -92.507) scale(1.0228)"/></g><path d="m-550.69 191.35c-2.1229-20.482 15.422-42.684 29.001-40.11 8.4853 0.74941 13.996 9.1554 9.4919 40.421-1.8 27.505 9.0689 28.927 21.109 27.938" fill="none" stroke="#000" stroke-width="3.834" transform="translate(621.16 -92.507) scale(1.0228)"/></g><g id="change1_2"><path d="m-825.33-248.53c0 4.8491-4.7172 8.7801-10.536 8.7801s-10.536-3.931-10.536-8.7801 4.7172-8.7801 10.536-8.7801 10.536 3.931 10.536 8.7801z" fill="#ffc600" stroke="#230000" stroke-linecap="round" stroke-width="3.834" transform="matrix(.49706 0 0 .58943 594.28 206.11)"/></g><g id="change1_3"><path d="m-825.33-248.53c0 4.8491-4.7172 8.7801-10.536 8.7801s-10.536-3.931-10.536-8.7801 4.7172-8.7801 10.536-8.7801 10.536 3.931 10.536 8.7801z" fill="#ffc600" stroke="#230000" stroke-linecap="round" stroke-width="3.834" transform="matrix(.49706 0 0 .58943 686.11 206.11)"/></g><g id="change1_4"><path d="m-825.33-248.53c0 4.8491-4.7172 8.7801-10.536 8.7801s-10.536-3.931-10.536-8.7801 4.7172-8.7801 10.536-8.7801 10.536 3.931 10.536 8.7801z" fill="#ffc600" stroke="#230000" stroke-linecap="round" stroke-width="3.834" transform="matrix(.49706 0 0 .58943 776.91 221.63)"/></g><g id="change1_5"><path d="m-825.33-248.53c0 4.8491-4.7172 8.7801-10.536 8.7801s-10.536-3.931-10.536-8.7801 4.7172-8.7801 10.536-8.7801 10.536 3.931 10.536 8.7801z" fill="#ffc600" stroke="#230000" stroke-linecap="round" stroke-width="3.834" transform="matrix(.49706 0 0 .58943 500.6 221.63)"/></g></svg>